<svg xmlns:xlink="http://www.w3.org/1999/xlink" width="326" height="690" xmlns="http://www.w3.org/2000/svg" viewBox="0 0 326 690">
    <style type="text/css"><![CDATA[
.st3 {fill:#000000;font-family:Arial;font-size:10pt;font-weight:bold}
.st2 {fill:#000000;font-family:Arial;font-size:10pt}
.st5 {fill:#000000;font-family:Arial;font-size:12pt}
.st1 {fill:#1f6391;font-family:Arial;font-size:6pt}
.st4 {fill:#ffffff;font-family:Arial;font-size:10pt}
]]></style>
    <defs/>
    <g transform="translate(-418.48,-55.35)">
        <g transform="translate(419.48,56.35)">
            <g transform="translate(13.69,58)">
                <path fill="#e6e6e8" id="shape1" d="M0,0L290.3,0L290.3,20L0,20L0,0z"/>
                <g id="shape2" transform="translate(255.32,4.39)">
                    <text class="st1">
                        <tspan y="3.2" x="10.1">8:2</tspan>
                        <tspan y="13.2" x="14.1">8</tspan>
                    </text>
                </g>
                <g transform="translate(234.65,6.52)">
                    <path fill="none" id="shape3" transform="translate(-0,0)" d="M18.1,-0L.8,-0C.4,-0,0,.4,0,.9L0,7.3C0,7.8,.4,8.2,.8,8.2L18.1,8.2C18.6,8.2,19,7.8,19,7.3L19,.9C19,.4,18.6,-0,18.1,-0" stroke="#000000"/>
                    <path fill="#000000" id="shape4" transform="translate(0.84,0.86)" d="M14.4,6C14.4,6.3,14.3,6.5,14.1,6.5L.4,6.5C.2,6.5,0,6.3,0,6L0,.4C0,.2,.2,0,.4,0L14.1,0C14.3,0,14.4,.2,14.4,.4L14.4,6"/>
                    <path fill="#000000" id="shape5" transform="translate(19.39,2.59)" d="M1.3,1.7C1.3,2.4,.7,3,0,3L0,-0C.7,-0,1.3,.6,1.3,1.3" stroke="#000000"/>
                </g>
                <g id="shape6" transform="translate(204.99,6.04)">
                    <text class="st1">
                        <tspan y="6.6" x="12.2">88%</tspan>
                    </text>
                </g>
                <path fill="#000000" id="shape7" transform="translate(180.1,5.74)" d="M4.7,7.6L6.6,9.8L8.5,7.6C8.5,7.6,7.5,6.8,6.6,6.8C5.6,6.8,4.7,7.6,4.7,7.6M2.3,5L3.4,6.2C3.4,6.2,4.4,4.9,6.6,4.9C8.8,4.9,9.7,6.2,9.7,6.2L10.8,5C10.8,5,8.8,3.3,6.6,3.3C4.4,3.3,2.3,5,2.3,5M6.6,-0C3,-0,0,2.8,0,2.8L1.1,3.9C1.1,3.9,3.3,1.6,6.6,1.6C9.9,1.6,12.1,3.9,12.1,3.9L13.1,2.8C13.1,2.8,10.2,-0,6.6,-0"/>
                <g transform="translate(198.27,5.54)">
                    <path fill="#000000" id="shape8" transform="translate(12.52,0)" d="M0,0L1.8,0L1.8,10.2L0,10.2L0,0z"/>
                    <path fill="#000000" id="shape9" transform="translate(8.35,1.74)" d="M0,0L1.8,0L1.8,8.4L0,8.4L0,0z"/>
                    <path fill="#000000" id="shape10" transform="translate(4.17,4.34)" d="M0,0L1.8,0L1.8,5.8L0,5.8L0,0z"/>
                    <path fill="#000000" id="shape11" transform="translate(-0,6.51)" d="M0,0L1.8,0L1.8,3.6L0,3.6L0,0z"/>
                </g>
                <path fill="#000000" id="shape12" transform="translate(6.79,3.9)" d="M1.2,0L12.2,0C12.9,0,13.4,.5,13.4,1.2L13.4,8.9C13.4,9.5,12.9,10.1,12.2,10.1L5.5,10.1L2.4,12.2L2.4,10.1L1.2,10.1C.5,10.1,0,9.5,0,8.9L0,1.2C0,.5,.5,0,1.2,0z"/>
                <path fill="#ffffff" id="shape13" transform="translate(9.71,9.57)" d="M.2,-0C.2,-0,1.9,.5,3.8,.5C5.7,.5,7.3,-0,7.3,-0C7.5,-0,7.5,.1,7.5,.2C7.5,.3,7.5,.4,7.3,.4C7.3,.4,5.9,.9,3.8,.9C1.7,.9,.2,.4,.2,.4C.1,.4,0,.3,0,.2C0,.1,.1,-0,.2,-0z" stroke="#ffffff"/>
                <g transform="translate(10.51,6.47)">
                    <path fill="#ffffff" id="shape14" transform="translate(-0,0)" d="M-0,.6C-0,.3,.3,0,.6,0C.9,0,1.2,.3,1.2,.6C1.2,.9,.9,1.2,.6,1.2C.3,1.2,-0,.9,-0,.6z" stroke="#ffffff"/>
                    <path fill="#ffffff" id="shape15" transform="translate(4.77,0)" d="M-0,.6C-0,.3,.3,0,.6,0C.9,0,1.2,.3,1.2,.6C1.2,.9,.9,1.2,.6,1.2C.3,1.2,-0,.9,-0,.6z" stroke="#ffffff"/>
                </g>
                <g transform="translate(28,4.2)">
                    <path fill="#000000" id="shape16" transform="translate(-0.06,6.82)" d="M1.6,1.1C1.6,1.1,7.2,-1.4,12.7,1.1C12.7,1.1,14.9,2,14.3,3.7C14.3,3.7,13.9,4.8,13.6,4.8L10.7,4.1C10.7,4.1,10.4,4,10.3,3.6L9.9,2.6C9.9,2.6,9.7,2.1,9.2,2C9.2,2,7.2,1.5,5.2,2C5.2,2,4.5,2.1,4.4,2.6L4.1,3.6C4.1,3.6,4.1,3.9,3.6,4.1L1,4.7C1,4.7,.5,4.9,.4,4.6C.1,3.9,-0.2,2.4,.4,1.8C.4,1.8,1.2,1.3,1.6,1.1z"/>
                    <path fill="#000000" id="shape17" transform="translate(2.67,-0)" d="M8.9,.9L4.4,5.6L.9,1.9L0,0L2.7,0L1.8,1L4.4,3.8L8.9,.9z"/>
                </g>
            </g>
            <g>
                <g transform="translate(318.23,107.76)">
                    <path fill="#ffffff" stroke-width="0.5" id="shape18" transform="translate(0.05,120.65)" d="M-0.1,0L2.2,0C3.3,0,4.1,.9,4.1,2.1L4.1,42.9C4.1,44,3.3,45,2.2,45L-0.1,45L-0.1,0z" stroke="#808080"/>
                    <path fill="#ffffff" stroke-width="0.5" id="shape19" transform="matrix(-1,0,0,1,5.7,0)" d="M1.8,0L5.6,0L5.6,99.5L1.8,99.5C.8,99.5,-0.1,98.6,-0.1,97.5L-0.1,1.9C-0.1,.8,.8,0,1.8,0z" stroke="#808080"/>
                </g>
                <path fill="#ffffff" stroke-width="0.5" id="shape20" d="M30.2,0L287.8,0C304.5,0,318,13.5,318,30.2L318,611.8C318,628.5,304.5,642,287.8,642L30.2,642C13.5,642,0,628.5,0,611.8L0,30.2C0,13.5,13.5,0,30.2,0zM14,576.3L304,576.3L304,58.2L14,58.2L14,576.3z" stroke="#808080"/>
                <g transform="translate(106.94,25.58)">
                    <path fill="#ffffff" stroke-width="0.5" id="shape21" transform="translate(0,2.06)" d="M3.2,0L12.5,0C14.3,0,15.7,1.4,15.7,3.2C15.7,5,14.3,6.4,12.5,6.4L3.2,6.4C1.4,6.4,0,5,0,3.2C0,1.4,1.4,0,3.2,0z" stroke="#808080"/>
                    <path fill="#ffffff" stroke-width="0.5" id="shape22" transform="translate(31.07,2.24)" d="M3,0L32.7,0C34.4,0,35.7,1.4,35.7,3C35.7,4.7,34.4,6.1,32.7,6.1L3,6.1C1.4,6.1,0,4.7,0,3C0,1.4,1.4,0,3,0z" stroke="#808080"/>
                    <path fill="#ffffff" stroke-width="0.5" id="shape23" transform="translate(93.57,0)" d="M0,5.3C0,2.4,2.4,0,5.3,0C8.2,0,10.6,2.4,10.6,5.3C10.6,8.2,8.2,10.6,5.3,10.6C2.4,10.6,0,8.2,0,5.3z" stroke="#808080"/>
                </g>
                <g transform="translate(55.23,600.24)">
                    <path fill="#ffffff" stroke-width="0.5" id="shape24" transform="translate(-0,0)" d="M2.5,0L10.7,0C12.1,0,13.2,1.1,13.2,2.5L13.2,10.7C13.2,12.1,12.1,13.2,10.7,13.2L2.5,13.2C1.1,13.2,0,12.1,0,10.7L0,2.5C0,1.1,1.1,0,2.5,0z" stroke="#808080"/>
                    <path fill="#ffffff" stroke-width="0.5" id="shape25" transform="translate(100.52,0.36)" d="M0,6.3C0,2.8,2.8,0,6.3,0C9.7,0,12.5,2.8,12.5,6.3C12.5,9.7,9.7,12.5,6.3,12.5C2.8,12.5,0,9.7,0,6.3z" stroke="#808080"/>
                    <path fill="#ffffff" stroke-width="0.5" id="shape26" transform="translate(201.8,0.21)" d="M-5.7,6.4L5.7,0L5.7,12.8L-5.7,6.4z" stroke="#808080"/>
                </g>
            </g>
        </g>
        <path fill="#ffffff" id="shape27" transform="translate(438.22,161)" d="M0,0L280.5,0L280.5,141L0,141L0,0z" stroke="#7eccb6"/>
        <g transform="translate(443.62,167.49)">
            <path fill="#ffffff" id="shape28" transform="translate(236.55,76.03)" d="M0,10.5C0,4.7,4.7,0,10.5,0C16.3,0,21,4.7,21,10.5C21,16.3,16.3,21,10.5,21C4.7,21,0,16.3,0,10.5z" stroke="#eeeeee"/>
            <g transform="translate(32.85,37.53)">
                <path fill="#c9c9c9" id="shape29" transform="translate(0,0.92)" d="M.3,0L22.6,0C22.8,0,23,.5,23,1.1L23,29.9C23,30.6,22.8,31.1,22.6,31.1L.3,31.1C.1,31.1,0,30.6,0,29.9L0,1.1C0,.5,.1,0,.3,0z"/>
                <g id="shape30" transform="translate(0,-0.03)">
                    <path fill="#fcfcfc" d="M.3,0L22.6,0C22.8,0,23,.5,23,1.1L23,29.9C23,30.6,22.8,31.1,22.6,31.1L.3,31.1C.1,31.1,0,30.6,0,29.9L0,1.1C0,.5,.1,0,.3,0z"/>
                    <text class="st2">
                        <tspan y="19.1" x="4">19</tspan>
                    </text>
                </g>
            </g>
            <g transform="translate(66.77,37.53)">
                <path fill="#c9c9c9" id="shape31" transform="translate(0,0.92)" d="M1.1,0L70.8,0C71.5,0,72,.5,72,1.1L72,29.9C72,30.6,71.5,31.1,70.8,31.1L1.1,31.1C.5,31.1,0,30.6,0,29.9L0,1.1C0,.5,.5,0,1.1,0z"/>
                <g id="shape32" transform="translate(0,-0.03)">
                    <path fill="#fcfcfc" d="M1.1,0L70.8,0C71.5,0,72,.5,72,1.1L72,29.9C72,30.6,71.5,31.1,70.8,31.1L1.1,31.1C.5,31.1,0,30.6,0,29.9L0,1.1C0,.5,.5,0,1.1,0z"/>
                    <text class="st2">
                        <tspan y="19.1" x="22">14 kt</tspan>
                    </text>
                </g>
            </g>
            <path fill="#3498db" stroke-width="0.333333" id="shape33" transform="translate(3.55,43.03)" d="M17.5,6.3L4.5,11.8L11.9,11.8L11.9,19.2L17.5,6.3zM0,12C0,5.4,5.4,0,12,0C18.6,0,24,5.4,24,12C24,18.6,18.6,24,12,24C5.4,24,0,18.6,0,12zM12,22.6C17.8,22.6,22.6,17.8,22.6,12C22.6,6.2,17.8,1.4,12,1.4C6.2,1.4,1.4,6.2,1.4,12C1.4,17.8,6.2,22.6,12,22.6zM19.6,7.5z" stroke="#3498db"/>
            <g transform="translate(126.85,37.53)">
                <path fill="#c9c9c9" id="shape34" transform="translate(0,0.92)" d="M1.5,0L100.1,0C101,0,101.7,.5,101.7,1.1L101.7,29.9C101.7,30.6,101,31.1,100.1,31.1L1.5,31.1C.7,31.1,0,30.6,0,29.9L0,1.1C0,.5,.7,0,1.5,0z"/>
                <g id="shape35" transform="translate(0,-0.03)">
                    <path fill="#fcfcfc" d="M1.5,0L100.1,0C101,0,101.7,.5,101.7,1.1L101.7,29.9C101.7,30.6,101,31.1,100.1,31.1L1.5,31.1C.7,31.1,0,30.6,0,29.9L0,1.1C0,.5,.7,0,1.5,0z"/>
                    <text class="st2">
                        <tspan y="19.1" x="23.4">1021 hPa</tspan>
                    </text>
                </g>
            </g>
            <g transform="translate(228.55,37.53)">
                <path fill="#c9c9c9" id="shape36" transform="translate(0,0.92)" d="M.6,0L38.8,0C39.2,0,39.5,.5,39.5,1.1L39.5,29.9C39.5,30.6,39.2,31.1,38.8,31.1L.6,31.1C.3,31.1,0,30.6,0,29.9L0,1.1C0,.5,.3,0,.6,0z"/>
                <g id="shape37" transform="translate(0,-0.03)">
                    <path fill="#fcfcfc" d="M.6,0L38.8,0C39.2,0,39.5,.5,39.5,1.1L39.5,29.9C39.5,30.6,39.2,31.1,38.8,31.1L.6,31.1C.3,31.1,0,30.6,0,29.9L0,1.1C0,.5,.3,0,.6,0z"/>
                    <text class="st2">
                        <tspan y="19.1" x="7.2">47 F</tspan>
                    </text>
                </g>
            </g>
            <g transform="translate(0,77.03)">
                <path fill="#c9c9c9" id="shape38" transform="translate(0,0.66)" d="M3.5,0L224.9,0C226.9,0,228.5,.4,228.5,.8L228.5,21.5C228.5,22,226.9,22.3,224.9,22.3L3.5,22.3C1.5,22.3,0,22,0,21.5L0,.8C0,.4,1.5,0,3.5,0z"/>
                <g id="shape39" transform="translate(0,-0.02)">
                    <path fill="#fcfcfc" d="M3.5,0L224.9,0C226.9,0,228.5,.4,228.5,.8L228.5,21.5C228.5,22,226.9,22.3,224.9,22.3L3.5,22.3C1.5,22.3,0,22,0,21.5L0,.8C0,.4,1.5,0,3.5,0z"/>
                    <text class="st2">
                        <tspan y="15" x="4.3">Scattered at 3500 ft AGL</tspan>
                    </text>
                </g>
            </g>
            <g transform="translate(0,3.03)">
                <path fill="#c9c9c9" id="shape40" transform="translate(0,0.8)" d="M2.3,0L148.4,0C149.7,0,150.8,.4,150.8,1L150.8,26.2C150.8,26.7,149.7,27.2,148.4,27.2L2.3,27.2C1,27.2,0,26.7,0,26.2L0,1C0,.4,1,0,2.3,0z"/>
                <g id="shape41" transform="translate(0,-0.03)">
                    <path fill="#fcfcfc" d="M2.3,0L148.4,0C149.7,0,150.8,.4,150.8,1L150.8,26.2C150.8,26.7,149.7,27.2,148.4,27.2L2.3,27.2C1,27.2,0,26.7,0,26.2L0,1C0,.4,1,0,2.3,0z"/>
                    <text class="st3">
                        <tspan y="15" x="4.4">Billings Logan Intl</tspan>
                    </text>
                </g>
            </g>
            <g transform="translate(150.81,0.03)">
                <path fill="#c9c9c9" id="shape42" transform="translate(0,0.92)" d="M.9,0L61,0C61.5,0,62,.5,62,1.1L62,29.9C62,30.6,61.5,31.1,61,31.1L.9,31.1C.4,31.1,0,30.6,0,29.9L0,1.1C0,.5,.4,0,.9,0z"/>
                <g id="shape43" transform="translate(0,-0.03)">
                    <path fill="#fcfcfc" d="M.9,0L61,0C61.5,0,62,.5,62,1.1L62,29.9C62,30.6,61.5,31.1,61,31.1L.9,31.1C.4,31.1,0,30.6,0,29.9L0,1.1C0,.5,.4,0,.9,0z"/>
                    <text class="st3">
                        <tspan y="19.1" x="16">KBIL</tspan>
                    </text>
                </g>
            </g>
            <g transform="translate(212.81,0.03)">
                <path fill="#c9c9c9" id="shape44" transform="translate(0,0.92)" d="M.9,0L56,0C56.5,0,56.9,.5,56.9,1.1L56.9,29.9C56.9,30.6,56.5,31.1,56,31.1L.9,31.1C.4,31.1,0,30.6,0,29.9L0,1.1C0,.5,.4,0,.9,0z"/>
                <g id="shape45" transform="translate(0,-0.03)">
                    <path fill="#ffaf00" d="M.9,0L56,0C56.5,0,56.9,.5,56.9,1.1L56.9,29.9C56.9,30.6,56.5,31.1,56,31.1L.9,31.1C.4,31.1,0,30.6,0,29.9L0,1.1C0,.5,.4,0,.9,0z" stroke="#ffaf00"/>
                    <text class="st4">
                        <tspan y="19.1" x="10.5">MVFR</tspan>
                    </text>
                </g>
            </g>
            <g transform="translate(0,105.03)">
                <path fill="#c9c9c9" id="shape46" transform="translate(0,0.66)" d="M2.7,0L176.9,0C178.5,0,179.8,.4,179.8,.8L179.8,21.5C179.8,22,178.5,22.3,176.9,22.3L2.7,22.3C1.2,22.3,0,22,0,21.5L0,.8C0,.4,1.2,0,2.7,0z"/>
                <g id="shape47" transform="translate(0,-0.02)">
                    <path fill="#fcfcfc" d="M2.7,0L176.9,0C178.5,0,179.8,.4,179.8,.8L179.8,21.5C179.8,22,178.5,22.3,176.9,22.3L2.7,22.3C1.2,22.3,0,22,0,21.5L0,.8C0,.4,1.2,0,2.7,0z"/>
                    <text class="st2">
                        <tspan y="15" x="4.4">Visibility min. 16 km</tspan>
                    </text>
                </g>
            </g>
            <g transform="translate(228.55,107.03)">
                <path fill="#c9c9c9" id="shape48" transform="translate(0,0.55)" d="M.6,0L35.9,0C36.2,0,36.5,.3,36.5,.7L36.5,17.8C36.5,18.2,36.2,18.5,35.9,18.5L.6,18.5C.2,18.5,0,18.2,0,17.8L0,.7C0,.3,.2,0,.6,0z"/>
                <g id="shape49" transform="translate(0,-0.02)">
                    <path fill="#fcfcfc" d="M.6,0L35.9,0C36.2,0,36.5,.3,36.5,.7L36.5,17.8C36.5,18.2,36.2,18.5,35.9,18.5L.6,18.5C.2,18.5,0,18.2,0,17.8L0,.7C0,.3,.2,0,.6,0z"/>
                    <text class="st2">
                        <tspan y="12.7" x="11.2">23</tspan>
                    </text>
                </g>
            </g>
        </g>
        <g transform="translate(458,334.35)">
            <g>
                <g transform="translate(0,11.08)">
                    <path fill="#3498db" stroke-width="0.333333" id="shape50" transform="translate(6.91,1.58)" d="M22.5,1.6L22.5,7.6L22.5,16.3L20,16.3L18.2,16.3L18.2,17.9L18.2,23C18.2,23.4,17.9,23.7,17.5,23.8C17.4,23.8,17.4,23.8,17.4,23.8C17.2,23.8,17.1,23.7,16.9,23.6C16.7,23.4,16.5,23.2,16.5,23L16.5,17.9L16.5,16.3L14.9,16.3L9.6,16.3L7.8,16.3L7.8,17.9L7.8,23C7.8,23.4,7.4,23.8,6.9,23.8C6.4,23.8,6,23.4,6,23L6,17.9L6,16.3L4.4,16.3L1.7,16.3L1.7,7.6L1.7,1.6L22.5,1.6zM24.2,0L0,0L0,7.6L0,16.4C0,17.1,.6,17.9,1.3,17.9L4.3,17.9L4.3,23C4.3,24.3,5.5,25.3,6.9,25.3C8.3,25.3,9.5,24.3,9.5,23L9.5,17.9L14.8,17.9L14.8,23C14.8,23.7,15.2,24.4,15.8,24.8C16.2,25.1,16.8,25.3,17.4,25.3C17.4,25.3,17.4,25.3,17.5,25.3C17.5,25.3,17.4,25.3,17.4,25.3C18.9,25.3,20,24.3,20,23L20,17.9L23.1,17.9C23.8,17.9,24.2,17.1,24.2,16.4L24.2,7.6L24.2,0z" stroke="#3498db"/>
                    <path fill="#3498db" stroke-width="0.333333" id="shape51" transform="translate(32.82,0)" d="M2.6,1.6C3.1,1.6,3.5,1.9,3.5,2.4L3.5,11.9C3.5,12.3,3.1,12.7,2.6,12.7C2.1,12.7,1.7,12.3,1.7,11.9L1.7,2.4C1.7,1.9,2.1,1.6,2.6,1.6zM2.6,0C1.2,0,0,1.1,0,2.4L0,11.9C0,13.2,1.2,14.3,2.6,14.3C4,14.3,5.2,13.2,5.2,11.9L5.2,2.4C5.2,1.1,4,0,2.6,0z" stroke="#3498db"/>
                    <path fill="#3498db" stroke-width="0.333333" id="shape52" transform="translate(-0,0)" d="M2.6,1.6C3.1,1.6,3.5,1.9,3.5,2.4L3.5,11.9C3.5,12.3,3.1,12.7,2.6,12.7C2.1,12.7,1.7,12.3,1.7,11.9L1.7,2.4C1.7,1.9,2.1,1.6,2.6,1.6zM2.6,0C1.2,0,0,1.1,0,2.4L0,11.9C0,13.2,1.2,14.3,2.6,14.3C4,14.3,5.2,13.2,5.2,11.9L5.2,2.4C5.2,1.1,4,0,2.6,0z" stroke="#3498db"/>
                </g>
                <path fill="#3498db" stroke-width="0.333333" id="shape53" transform="translate(6.93,0)" d="M12,3C13.6,3,15,3.2,16.2,3.6L17.3,4C20.4,5.2,21.6,7.7,22.1,9.5L2,9.5C2.5,7.7,3.7,5.2,6.8,4L7.9,3.5C9.1,3.2,10.5,3,12,3zM4.4,0C4.4,0,4.3,0,4.3,.1C4.1,.2,4.1,.3,4.1,.3L6.1,2.5C.9,4.6,.1,9.6,0,11.1L24.1,11.1C24,9.6,23.3,4.7,18,2.5L20,.3C20.1,.3,20,.2,19.9,.1C19.8,0,19.7,0,19.7,0C19.6,0,19.6,0,19.6,0L17.5,2.3C16.1,1.8,14.3,1.4,12.1,1.4C12,1.4,12,1.4,12,1.4C9.8,1.4,8,1.7,6.6,2.3L4.5,0C4.5,0,4.5,0,4.4,0z" stroke="#3498db"/>
            </g>
            <path fill="#3498db" stroke-width="0.333333" id="shape54" transform="translate(12.21,4.78)" d="M1.5,2.6C.7,2.6,0,2,0,1.3C0,.6,.6,0,1.5,0C2.3,0,2.9,.6,2.9,1.3C2.9,2,2.3,2.6,1.5,2.6z" stroke="#3498db"/>
            <path fill="#3498db" stroke-width="0.333333" id="shape55" transform="translate(22.83,4.78)" d="M1.5,2.6C.7,2.6,0,2,0,1.3C0,.6,.6,0,1.5,0C2.3,0,2.9,.6,2.9,1.3C2.9,2,2.3,2.6,1.5,2.6z" stroke="#3498db"/>
        </g>
        <path fill="#3498db" stroke-width="0.333333" id="shape56" transform="translate(562.48,339.35)" d="M7.9,24.2C6.4,24,5.9,23.5,5.4,22.7C4.4,21.1,5.2,18.5,5.3,18.1C6,16.2,7.3,15.6,8.1,15.4C9.1,16.4,10.5,17,12.1,17C13.7,17,15.2,16.4,16.1,15.4C17,15.6,18.3,16.2,18.9,18.1C19.1,18.5,19.8,21.1,18.8,22.7C18.4,23.5,17.8,24,16.4,24.2L7.9,24.2zM12.1,15.4C14.3,15.4,16,13.7,16,11.6C16,9.5,14.3,7.8,12.1,7.8C10,7.8,8.3,9.5,8.3,11.6C8.3,13.7,10,15.4,12.1,15.4zM21.7,17.1L33.1,17.1L33.1,14.9L21.7,14.9L21.7,17.1zM21.7,22L33.1,22L33.1,19.8L21.7,19.8L21.7,22zM21.7,12.2L33.1,12.2L33.1,9.9L21.7,9.9L21.7,12.2zM12.7,1.9L25.3,1.9L25.3,3.8C25.3,4.4,25.7,4.8,26.3,4.8L28,4.8C28.6,4.8,29.1,4.4,29.1,3.8L29.1,1.9L34.2,1.9C35.2,1.9,36.1,2.7,36.1,3.7L36.1,24.3C36.1,25.3,35.2,26.1,34.2,26.1L3.8,26.1C2.8,26.1,1.9,25.3,1.9,24.3L1.9,3.7C1.9,2.7,2.8,1.9,3.8,1.9L8.9,1.9L8.9,3.8C8.9,4.4,9.4,4.8,10,4.8L11.7,4.8C12.3,4.8,12.7,4.4,12.7,3.8L12.7,1.9zM0,3.7L0,24.3C0,26.3,1.7,28,3.8,28L34.2,28C36.3,28,38,26.3,38,24.3L38,3.7C38,1.7,36.3,0,34.2,0L3.8,0C1.7,0,0,1.7,0,3.7z" stroke="#3498db"/>
        <g transform="translate(647,334.35)">
            <path fill="#3498db" stroke-width="0.333333" id="shape57" d="M36.1,12.9C37.3,11.5,38,9.8,38,7.9C38,3.7,34.7,.3,30.4,0C30.3,0,30.1,0,30,0C28.1,0,26.3,.7,24.9,1.7L30,6.8C26.6,5.9,23.6,4.7,20.4,4.4C20.4,3.6,19.8,2.9,19,2.9C18.2,2.9,17.5,3.6,17.5,4.4C14.3,4.7,11.4,5.9,9,7.8L13.1,1.7C11.7,.7,9.9,0,8,0C7.9,0,7.7,0,7.6,0C3.3,.3,0,3.7,0,7.9C0,9.8,.7,11.5,1.9,12.9L6.9,7.9C4.5,11.8,2.5,16.3,2.5,21.2C2.5,25.4,4,29.2,6.5,32.2L3.1,36.4L4.2,37.4L7.5,33.3C10.5,36.2,14.5,38,19,38C19,38,19,38,19,38C23.5,38,27.5,36.2,30.5,33.3L33.8,37.4L34.9,36.5L31.5,32.2C34,29.2,35.5,25.4,35.5,21.2C35.5,16.3,33.5,11.8,30.2,8.8L36.1,12.9zM2.1,10.5C1.7,9.7,1.5,8.8,1.5,7.9C1.5,4.5,4.2,1.7,7.6,1.4C8.8,1.4,9.8,1.6,10.7,2L2.1,10.5zM34,21C34,29.4,27.3,36,19,36C10.7,36,4,29.4,4,21C4,12.6,10.7,5.7,19,5.7C27.3,5.7,34,12.5,34,21zM27.3,2C28.2,1.6,29.2,1.4,30.4,1.5C33.9,1.7,36.5,4.5,36.5,7.9C36.5,8.8,36.3,9.7,35.9,10.6L27.3,2z" stroke="#3498db"/>
            <path fill="#3498db" stroke-width="0.333333" id="shape58" transform="translate(9.97,9.79)" d="M9,0L9,12.3L0,12.3L0,13.8L10.5,13.8L10.5,0L9,0z" stroke="#3498db"/>
        </g>
        <path fill="#3498db" stroke-width="0.333333" id="shape59" transform="translate(458,404.7)" d="M4.3,9.1L12,9.1L12,6.5C12.3,2.9,15.3,0,19,0C22.7,0,25.7,2.9,26,6.5L26,9.1L33.7,9.1C34.1,9.1,34.5,9.4,34.5,9.9L38,37.2C38,37.7,37.7,38,37.2,38L.8,38C.3,38,0,37.7,0,37.2L3.5,9.9C3.5,9.4,3.9,9.1,4.3,9.1zM5.5,11.6L3.3,28.9L34.7,28.9L32.5,11.6C32.5,11.2,32.2,10.9,31.8,10.9L26,10.9L26,16.3L24.1,16.3L24.1,10.9L13.9,10.9L13.9,16.3L12,16.3L12,10.9L6.2,10.9C5.8,10.9,5.5,11.2,5.5,11.6zM3,30.8L2.4,35.5C2.4,35.8,2.7,36.2,3.1,36.2L34.9,36.2C35.3,36.2,35.6,35.8,35.6,35.5L35,30.8L3,30.8zM13.9,9.1L24.1,9.1L24.1,7C24.1,4.2,21.8,1.9,19,1.9C16.2,1.9,13.9,4.2,13.9,7L13.9,9.1z" stroke="#3498db"/>
        <path fill="#3498db" stroke-width="0.333333" id="shape60" transform="translate(559.48,404.7)" d="M12.3,0L30.3,0C32,0,33.4,1.4,33.4,3.2C33.4,3.2,26.8,29.3,26.7,29.6C26.5,30.8,25.4,31.4,24.7,31.5L4.6,31.5C3.6,31.5,2.8,32.3,2.8,33.3C2.8,34.3,3.6,35.1,4.6,35.1L26,35.2C26,35.2,28.6,35.1,29.7,31.4L35.9,6.8C36.1,5.5,36.1,4.2,35.6,3.2C37.8,4,38.4,5.8,37.8,8.9C37.8,8.9,32.6,32.3,32.4,33C30.8,38.2,27,38,27,38L5.3,38C1.2,37.8,-0.3,35,.1,31.2C.1,31.2,9.1,2.5,9.3,2.2C9.7,.9,10.9,0,12.3,0zM13.2,5.4L12.3,8C12.3,8.4,12.5,8.6,12.9,8.6L26.2,8.6C26.4,8.6,26.6,8.6,26.7,8.4C26.8,8.3,27.7,5.6,27.7,5.6C27.7,5.2,27.4,4.9,27,4.9L13.7,4.9C13.4,4.9,13.2,5.4,13.2,5.4z" stroke="#3498db"/>
        <path fill="#3498db" stroke-width="0.333333" id="shape61" transform="translate(647,404.7)" d="M16.4,0L21.8,0C25.1,0,27.7,2.8,27.7,6.2L27.7,7.9L25.3,7.9L25.3,5.7C25.3,3.8,23.7,2.3,21.6,2.3L16.6,2.3C14.6,2.3,12.9,3.8,12.9,5.7L12.9,7.9L10.5,7.9L10.5,6.2C10.5,2.8,13.2,0,16.4,0zM1.3,10.3L36.7,10.3C37.4,10.3,38,10.9,38,11.7L38,15.3L19,22.4L0,15.3L0,11.7C0,10.9,.6,10.3,1.3,10.3zM19,25.4L0,18.3L0,36.6C0,37.4,.6,38,1.3,38L36.7,38C37.4,38,38,37.4,38,36.6L38,18.3L19,25.4z" stroke="#3498db"/>
        <path fill="#3498db" stroke-width="0.333333" id="shape62" transform="translate(458,494)" d="M7.9,23.8C7.8,25,6.8,26,5.5,26C4.2,26,3.2,25,3.1,23.8L3.1,20.4L0,20.4L0,12.1C0,10.3,1.4,8.9,3.2,8.9C3.8,8,4.9,2.5,4.9,2.3C5.3,1,6.5,0,8,0L30,0C31.5,0,32.7,1,33.1,2.3C33.1,2.5,34.2,8,34.4,8.9C36.6,8.9,38,10.3,38,12.1L38,20.4L34.9,20.4L34.9,23.8C34.8,25,33.8,26,32.5,26C31.2,26,30.2,25,30.1,23.8L30.1,20.4L7.9,20.4L7.9,23.8zM5.8,8.9L32.2,8.9C32.1,8.1,31.2,3.5,31.1,3.3C30.9,2.5,30.1,1.9,29.2,1.9L15.9,1.9L8.8,1.9C7.9,1.9,7.1,2.5,6.9,3.3C6.8,3.5,5.9,8.1,5.8,8.9zM32.5,16C33.8,16,34.9,15,34.9,13.7C34.9,12.4,33.8,11.3,32.5,11.3C31.2,11.3,30.1,12.4,30.1,13.7C30.1,15,31.2,16,32.5,16zM5.5,16C6.8,16,7.9,15,7.9,13.7C7.9,12.4,6.8,11.3,5.5,11.3C4.2,11.3,3.1,12.4,3.1,13.7C3.1,15,4.2,16,5.5,16z" stroke="#3498db"/>
        <path fill="#3498db" stroke-width="0.333333" id="shape63" transform="translate(559.48,490)" d="M.9,0L6.7,0C6.8,0,6.8,0,6.9,0C7.4,0,7.8,.3,7.9,.8L8.5,4.6L37,4.6C37.1,4.6,37.2,4.6,37.3,4.6C37.7,4.7,38,5.1,38,5.5C38,5.5,38,5.5,38,5.6C38,5.7,38,5.8,38,5.9L34.8,18C34.7,18.4,34.3,18.7,33.8,18.7C33.8,18.7,33.7,18.7,33.7,18.7L10.3,20.8C10.1,21,9.9,21.3,9.9,21.6C9.9,22.2,10.5,22.8,11.1,22.8L33.9,22.8C33.9,22.8,33.9,22.8,33.9,22.8C33.9,22.8,33.9,22.8,34,22.8C34.4,22.8,34.8,23.2,34.8,23.6C34.8,24.1,34.4,24.4,34,24.5L11.1,24.5C9.5,24.5,8.3,23.2,8.3,21.6C8.3,20.9,8.5,20.2,9,19.7C9,19.7,9,19.7,9,19.7L6.2,1.9L.9,1.9C.4,1.9,0,1.5,0,1C0,.5,.4,0,.9,0zM35.8,6.5L8.8,6.5L10.7,18.8L33.2,16.8L35.8,6.5zM13.6,30C14.9,30,16,28.9,16,27.6C16,26.2,14.9,25.2,13.6,25.2C12.3,25.2,11.2,26.2,11.2,27.6C11.2,28.9,12.3,30,13.6,30zM29.4,30C30.8,30,31.8,28.9,31.8,27.6C31.8,26.2,30.8,25.2,29.4,25.2C28.1,25.2,27,26.2,27,27.6C27,28.9,28.1,30,29.4,30zM22.7,7.5z" stroke="#3498db"/>
        <path fill="#3498db" stroke-width="0.333333" id="shape64" transform="translate(647,488)" d="M12.6,28.4L6.6,31.9C6.5,31.9,6.4,32,6.2,32C6.2,32,6.2,32,6.1,32C6.1,32,6.1,32,6.1,32C5.9,32,5.7,31.9,5.6,31.8C5.5,31.8,5.5,31.7,5.4,31.7C5.3,31.5,5.2,31.3,5.2,31.1C5.2,31.1,5.2,31,5.2,31L5.4,24.8C2.1,22.2,0,18.6,0,14.6C0,6.5,8.5,0,19,0C29.5,0,38,6.5,38,14.6C38,22.7,29.5,29.3,19,29.3C16.7,29.3,14.6,29,12.6,28.4zM8.7,17.6C10.4,17.6,11.7,16.3,11.7,14.6C11.7,13,10.4,11.7,8.7,11.7C7.1,11.7,5.8,13,5.8,14.6C5.8,16.3,7.1,17.6,8.7,17.6zM19,17.6C20.6,17.6,22,16.3,22,14.6C22,13,20.6,11.7,19,11.7C17.4,11.7,16,13,16,14.6C16,16.3,17.4,17.6,19,17.6zM29.3,17.6C30.9,17.6,32.2,16.3,32.2,14.6C32.2,13,30.9,11.7,29.3,11.7C27.6,11.7,26.3,13,26.3,14.6C26.3,16.3,27.6,17.6,29.3,17.6z" stroke="#3498db"/>
        <g id="shape65" transform="translate(498.48,708.35)">
            <text class="st5">
                <tspan y="9.5" x="26">8. Device Home </tspan>
                <tspan y="28.5" x="31">Screen Widget</tspan>
            </text>
        </g>
    </g>
</svg>
