<svg xmlns:xlink="http://www.w3.org/1999/xlink" width="326" height="690" xmlns="http://www.w3.org/2000/svg" viewBox="0 0 326 690">
    <style type="text/css"><![CDATA[
.st4 {fill:#000000;font-family:Arial;font-size:12pt}
.st1 {fill:#1f6391;font-family:Arial;font-size:6pt}
.st3 {fill:#9b9b9b;font-family:Arial;font-size:18pt}
.st2 {fill:#ffffff;font-family:Arial;font-size:14pt}
.st5 {fill:#ffffff;font-family:Arial;font-size:18pt}
]]></style>
    <defs/>
    <g transform="translate(-60,-65)">
        <g transform="translate(61,66)">
            <g>
                <g transform="translate(13.69,58)">
                    <path fill="#e6e6e8" id="shape1" d="M0,0L290.3,0L290.3,20L0,20L0,0z"/>
                    <g id="shape2" transform="translate(255.32,4.39)">
                        <text class="st1">
                            <tspan y="3.2" x="10.1">8:2</tspan>
                            <tspan y="13.2" x="14.1">8</tspan>
                        </text>
                    </g>
                    <g transform="translate(234.65,6.52)">
                        <path fill="none" id="shape3" transform="translate(-0,0)" d="M18.1,-0L.8,-0C.4,-0,0,.4,0,.9L0,7.3C0,7.8,.4,8.2,.8,8.2L18.1,8.2C18.6,8.2,19,7.8,19,7.3L19,.9C19,.4,18.6,-0,18.1,-0" stroke="#000000"/>
                        <path fill="#000000" id="shape4" transform="translate(0.84,0.86)" d="M14.4,6C14.4,6.3,14.3,6.5,14.1,6.5L.4,6.5C.2,6.5,0,6.3,0,6L0,.4C0,.2,.2,0,.4,0L14.1,0C14.3,0,14.4,.2,14.4,.4L14.4,6"/>
                        <path fill="#000000" id="shape5" transform="translate(19.39,2.59)" d="M1.3,1.7C1.3,2.4,.7,3,0,3L0,-0C.7,-0,1.3,.6,1.3,1.3" stroke="#000000"/>
                    </g>
                    <g id="shape6" transform="translate(204.99,6.04)">
                        <text class="st1">
                            <tspan y="6.6" x="12.2">88%</tspan>
                        </text>
                    </g>
                    <path fill="#000000" id="shape7" transform="translate(180.1,5.74)" d="M4.7,7.6L6.6,9.8L8.5,7.6C8.5,7.6,7.5,6.8,6.6,6.8C5.6,6.8,4.7,7.6,4.7,7.6M2.3,5L3.4,6.2C3.4,6.2,4.4,4.9,6.6,4.9C8.8,4.9,9.7,6.2,9.7,6.2L10.8,5C10.8,5,8.8,3.3,6.6,3.3C4.4,3.3,2.3,5,2.3,5M6.6,-0C3,-0,0,2.8,0,2.8L1.1,3.9C1.1,3.9,3.3,1.6,6.6,1.6C9.9,1.6,12.1,3.9,12.1,3.9L13.1,2.8C13.1,2.8,10.2,-0,6.6,-0"/>
                    <g transform="translate(198.27,5.54)">
                        <path fill="#000000" id="shape8" transform="translate(12.52,0)" d="M0,0L1.8,0L1.8,10.2L0,10.2L0,0z"/>
                        <path fill="#000000" id="shape9" transform="translate(8.35,1.74)" d="M0,0L1.8,0L1.8,8.4L0,8.4L0,0z"/>
                        <path fill="#000000" id="shape10" transform="translate(4.17,4.34)" d="M0,0L1.8,0L1.8,5.8L0,5.8L0,0z"/>
                        <path fill="#000000" id="shape11" transform="translate(-0,6.51)" d="M0,0L1.8,0L1.8,3.6L0,3.6L0,0z"/>
                    </g>
                    <path fill="#000000" id="shape12" transform="translate(6.79,3.9)" d="M1.2,0L12.2,0C12.9,0,13.4,.5,13.4,1.2L13.4,8.9C13.4,9.5,12.9,10.1,12.2,10.1L5.5,10.1L2.4,12.2L2.4,10.1L1.2,10.1C.5,10.1,0,9.5,0,8.9L0,1.2C0,.5,.5,0,1.2,0z"/>
                    <path fill="#ffffff" id="shape13" transform="translate(9.71,9.57)" d="M.2,-0C.2,-0,1.9,.5,3.8,.5C5.7,.5,7.3,-0,7.3,-0C7.5,-0,7.5,.1,7.5,.2C7.5,.3,7.5,.4,7.3,.4C7.3,.4,5.9,.9,3.8,.9C1.7,.9,.2,.4,.2,.4C.1,.4,0,.3,0,.2C0,.1,.1,-0,.2,-0z" stroke="#ffffff"/>
                    <g transform="translate(10.51,6.47)">
                        <path fill="#ffffff" id="shape14" transform="translate(-0,0)" d="M-0,.6C-0,.3,.3,0,.6,0C.9,0,1.2,.3,1.2,.6C1.2,.9,.9,1.2,.6,1.2C.3,1.2,-0,.9,-0,.6z" stroke="#ffffff"/>
                        <path fill="#ffffff" id="shape15" transform="translate(4.77,0)" d="M-0,.6C-0,.3,.3,0,.6,0C.9,0,1.2,.3,1.2,.6C1.2,.9,.9,1.2,.6,1.2C.3,1.2,-0,.9,-0,.6z" stroke="#ffffff"/>
                    </g>
                    <g transform="translate(28,4.2)">
                        <path fill="#000000" id="shape16" transform="translate(-0.06,6.82)" d="M1.6,1.1C1.6,1.1,7.2,-1.4,12.7,1.1C12.7,1.1,14.9,2,14.3,3.7C14.3,3.7,13.9,4.8,13.6,4.8L10.7,4.1C10.7,4.1,10.4,4,10.3,3.6L9.9,2.6C9.9,2.6,9.7,2.1,9.2,2C9.2,2,7.2,1.5,5.2,2C5.2,2,4.5,2.1,4.4,2.6L4.1,3.6C4.1,3.6,4.1,3.9,3.6,4.1L1,4.7C1,4.7,.5,4.9,.4,4.6C.1,3.9,-0.2,2.4,.4,1.8C.4,1.8,1.2,1.3,1.6,1.1z"/>
                        <path fill="#000000" id="shape17" transform="translate(2.67,-0)" d="M8.9,.9L4.4,5.6L.9,1.9L0,0L2.7,0L1.8,1L4.4,3.8L8.9,.9z"/>
                    </g>
                </g>
                <g>
                    <g transform="translate(318.23,107.76)">
                        <path fill="#ffffff" stroke-width="0.5" id="shape18" transform="translate(0.05,120.65)" d="M-0.1,0L2.2,0C3.3,0,4.1,.9,4.1,2.1L4.1,42.9C4.1,44,3.3,45,2.2,45L-0.1,45L-0.1,0z" stroke="#808080"/>
                        <path fill="#ffffff" stroke-width="0.5" id="shape19" transform="matrix(-1,0,0,1,5.7,0)" d="M1.8,0L5.6,0L5.6,99.5L1.8,99.5C.8,99.5,-0.1,98.6,-0.1,97.5L-0.1,1.9C-0.1,.8,.8,0,1.8,0z" stroke="#808080"/>
                    </g>
                    <path fill="#ffffff" stroke-width="0.5" id="shape20" d="M30.2,0L287.8,0C304.5,0,318,13.5,318,30.2L318,611.8C318,628.5,304.5,642,287.8,642L30.2,642C13.5,642,0,628.5,0,611.8L0,30.2C0,13.5,13.5,0,30.2,0zM14,576.3L304,576.3L304,58.2L14,58.2L14,576.3z" stroke="#808080"/>
                    <g transform="translate(106.94,25.58)">
                        <path fill="#ffffff" stroke-width="0.5" id="shape21" transform="translate(0,2.06)" d="M3.2,0L12.5,0C14.3,0,15.7,1.4,15.7,3.2C15.7,5,14.3,6.4,12.5,6.4L3.2,6.4C1.4,6.4,0,5,0,3.2C0,1.4,1.4,0,3.2,0z" stroke="#808080"/>
                        <path fill="#ffffff" stroke-width="0.5" id="shape22" transform="translate(31.07,2.24)" d="M3,0L32.7,0C34.4,0,35.7,1.4,35.7,3C35.7,4.7,34.4,6.1,32.7,6.1L3,6.1C1.4,6.1,0,4.7,0,3C0,1.4,1.4,0,3,0z" stroke="#808080"/>
                        <path fill="#ffffff" stroke-width="0.5" id="shape23" transform="translate(93.57,0)" d="M0,5.3C0,2.4,2.4,0,5.3,0C8.2,0,10.6,2.4,10.6,5.3C10.6,8.2,8.2,10.6,5.3,10.6C2.4,10.6,0,8.2,0,5.3z" stroke="#808080"/>
                    </g>
                    <g transform="translate(55.23,600.24)">
                        <path fill="#ffffff" stroke-width="0.5" id="shape24" transform="translate(-0,0)" d="M2.5,0L10.7,0C12.1,0,13.2,1.1,13.2,2.5L13.2,10.7C13.2,12.1,12.1,13.2,10.7,13.2L2.5,13.2C1.1,13.2,0,12.1,0,10.7L0,2.5C0,1.1,1.1,0,2.5,0z" stroke="#808080"/>
                        <path fill="#ffffff" stroke-width="0.5" id="shape25" transform="translate(100.52,0.36)" d="M0,6.3C0,2.8,2.8,0,6.3,0C9.7,0,12.5,2.8,12.5,6.3C12.5,9.7,9.7,12.5,6.3,12.5C2.8,12.5,0,9.7,0,6.3z" stroke="#808080"/>
                        <path fill="#ffffff" stroke-width="0.5" id="shape26" transform="translate(201.8,0.21)" d="M-5.7,6.4L5.7,0L5.7,12.8L-5.7,6.4z" stroke="#808080"/>
                    </g>
                </g>
                <g transform="translate(13.69,78)">
                    <path fill="#1bbc9d" id="shape27" d="M0,0L290,0L290,40L0,40L0,0z" stroke="#1bbc9d"/>
                    <g transform="translate(265.61,11.08)">
                        <path fill="#ffffff" id="shape28" d="M0,0L3.8,0L3.8,3.9L0,3.9L0,0z" stroke="#7eccb6"/>
                        <path fill="#ffffff" id="shape29" transform="translate(0,14.46)" d="M0,0L3.8,0L3.8,3.9L0,3.9L0,0z" stroke="#7eccb6"/>
                        <path fill="#ffffff" id="shape30" transform="translate(0,6.99)" d="M0,0L3.8,0L3.8,3.9L0,3.9L0,0z" stroke="#7eccb6"/>
                    </g>
                </g>
                <path fill="#ffffff" id="shape31" transform="translate(239,89.5)" d="M8.5,20.8M8.5,19.3zM9.1,7.9L9.1,0L7.9,0L7.9,7.9L0,7.9L0,9.1L7.9,9.1L7.9,17L9.1,17L9.1,9.1L17,9.1L17,7.9L9.1,7.9z" stroke="#7eccb6"/>
                <g id="shape32" transform="translate(59.04,72)">
                    <text class="st2">
                        <tspan y="31.5" x="11">Aviation Weather</tspan>
                    </text>
                </g>
                <g transform="translate(22.1,132)">
                    <path fill="#ffffff" id="shape33" d="M273.8,433L273.8,0L0,0L0,433L273.8,433z" stroke="#3498db"/>
                </g>
                <g transform="translate(92.96,169.5)">
                    <path fill="#c9c9c9" id="shape34" transform="translate(0,0.92)" d="M1.1,0L70.8,0C71.5,0,72,.5,72,1.1L72,29.9C72,30.6,71.5,31.1,70.8,31.1L1.1,31.1C.5,31.1,0,30.6,0,29.9L0,1.1C0,.5,.5,0,1.1,0z"/>
                    <path fill="#fcfcfc" id="shape35" transform="translate(0,-0.03)" d="M1.1,0L70.8,0C71.5,0,72,.5,72,1.1L72,29.9C72,30.6,71.5,31.1,70.8,31.1L1.1,31.1C.5,31.1,0,30.6,0,29.9L0,1.1C0,.5,.5,0,1.1,0z"/>
                </g>
            </g>
            <g id="shape36" transform="translate(31,140)">
                <text class="st3">
                    <tspan y="19" x="47">Press + to add </tspan>
                    <tspan y="47" x="84">stations</tspan>
                </text>
            </g>
        </g>
        <g id="shape37" transform="translate(139,716)">
            <text class="st4">
                <tspan y="11.5" x="20">1. Home Screen - </tspan>
                <tspan y="30.5" x="17">No Stations Added</tspan>
            </text>
        </g>
        <path fill="#ee7c31" id="shape38" transform="translate(302,581)" d="M0,16.5C0,7.4,7.4,0,16.5,0C25.6,0,33,7.4,33,16.5C33,25.6,25.6,33,16.5,33C7.4,33,0,25.6,0,16.5z" stroke="#ee7c31"/>
        <g id="shape39" transform="translate(296,571.5)">
            <text class="st5">
                <tspan y="33" x="15">+</tspan>
            </text>
        </g>
        <path fill="#1bbc9d" id="shape40" transform="matrix(0.71,0.71,-0.71,0.71,222,307.4)" d="M79.2,87.6C79.4,85.6,81.9,86.3,81.9,86.3L101.5,90L142.1,104.5C142.1,97.3,140.9,96.6,139.2,95.4L81.2,56.6C81.2,56.6,79.7,38.8,79.7,23.1C79.7,15.9,75.9,0,71.1,0C66.2,0,62.5,16.1,62.5,23.1C62.5,38,60.9,56.6,60.9,56.6L3,95.4C.7,96.8,0,97.6,0,104.5L40.6,90L60.3,86.3C60.3,86.3,62.8,85.6,62.9,87.6C63,89.7,62.5,108.1,64.8,117.9C65,119.2,64,119.3,63.2,120.1L46.8,129.8C46.2,130.3,46,131.9,46,131.9L45.7,137.4L67.2,132.7L71,142.1L74.9,132.7L96.4,137.4L96.1,131.9C96.1,131.9,95.9,130.3,95.3,129.8L78.9,120.1C78.2,119.3,77.1,119.2,77.4,117.9C79.5,108.1,79.1,89.7,79.2,87.6z" stroke="#1bbc9d"/>
        <path fill="#1bbc9d" id="shape41" transform="translate(148.14,302)" d="M19,27.8C14.1,27.8,10.2,23.9,10.2,19C10.2,14.1,14.1,10.2,19,10.2C23.9,10.2,27.8,14.1,27.8,19C27.8,23.9,23.9,27.8,19,27.8zM19,12.1C15.2,12.1,12.1,15.2,12.1,19C12.1,22.8,15.2,25.9,19,25.9C22.8,25.9,25.9,22.8,25.9,19C25.9,15.2,22.8,12.1,19,12.1zM30.7,5.6L27.3,9C26.8,9.5,26.8,10.2,27.3,10.7C27.8,11.2,28.5,11.2,29,10.7L32.4,7.3C32.9,6.8,32.9,6,32.4,5.6C32,5.1,31.2,5.1,30.7,5.6zM9,27.3L5.6,30.7C5.1,31.2,5.1,32,5.6,32.4C6,32.9,6.8,32.9,7.3,32.4L10.7,29C11.2,28.5,11.2,27.8,10.7,27.3C10.2,26.8,9.5,26.8,9,27.3zM17.8,1.2L17.8,6C17.8,6.7,18.3,7.3,19,7.3C19.7,7.3,20.2,6.7,20.2,6L20.2,1.2C20.2,.5,19.7,0,19,0C18.3,0,17.8,.5,17.8,1.2zM17.8,32L17.8,36.8C17.8,37.5,18.3,38,19,38C19.7,38,20.2,37.5,20.2,36.8L20.2,32C20.2,31.3,19.7,30.7,19,30.7C18.3,30.7,17.8,31.3,17.8,32zM6,17.8L1.2,17.8C.5,17.8,0,18.3,0,19C0,19.7,.5,20.2,1.2,20.2L6,20.2C6.7,20.2,7.3,19.7,7.3,19C7.3,18.3,6.7,17.8,6,17.8zM36.8,17.8L32,17.8C31.3,17.8,30.7,18.3,30.7,19C30.7,19.7,31.3,20.2,32,20.2L36.8,20.2C37.5,20.2,38,19.7,38,19C38,18.3,37.5,17.8,36.8,17.8zM5.6,7.3L9,10.7C9.5,11.2,10.2,11.2,10.7,10.7C11.2,10.2,11.2,9.5,10.7,9L7.3,5.6C6.8,5.1,6,5.1,5.6,5.6C5.1,6,5.1,6.8,5.6,7.3zM27.3,29L30.7,32.4C31.2,32.9,32,32.9,32.4,32.4C32.9,32,32.9,31.2,32.4,30.7L29,27.3C28.5,26.8,27.8,26.8,27.3,27.3C26.8,27.8,26.8,28.5,27.3,29z" stroke="#1bbc9d"/>
    </g>
</svg>
