<svg xmlns:xlink="http://www.w3.org/1999/xlink" width="326" height="690" xmlns="http://www.w3.org/2000/svg" viewBox="0 0 326 690">
    <style type="text/css"><![CDATA[
.st3 {fill:#000000;font-family:Arial;font-size:10pt;font-weight:bold}
.st6 {fill:#000000;font-family:Arial;font-size:10pt}
.st7 {fill:#000000;font-family:Arial;font-size:12pt}
.st1 {fill:#1f6391;font-family:Arial;font-size:6pt}
.st4 {fill:#ffffff;font-family:Arial;font-size:10pt}
.st2 {fill:#ffffff;font-family:Arial;font-size:14pt}
.st5 {font-weight:normal}
]]></style>
    <defs/>
    <g transform="translate(-743,-65)">
        <g transform="translate(744,66)">
            <g transform="translate(13.69,58)">
                <path fill="#e6e6e8" id="shape1" d="M0,0L290.3,0L290.3,20L0,20L0,0z"/>
                <g id="shape2" transform="translate(255.32,4.39)">
                    <text class="st1">
                        <tspan y="3.2" x="10.1">8:2</tspan>
                        <tspan y="13.2" x="14.1">8</tspan>
                    </text>
                </g>
                <g transform="translate(234.65,6.52)">
                    <path fill="none" id="shape3" transform="translate(-0,0)" d="M18.1,-0L.8,-0C.4,-0,0,.4,0,.9L0,7.3C0,7.8,.4,8.2,.8,8.2L18.1,8.2C18.6,8.2,19,7.8,19,7.3L19,.9C19,.4,18.6,-0,18.1,-0" stroke="#000000"/>
                    <path fill="#000000" id="shape4" transform="translate(0.84,0.86)" d="M14.4,6C14.4,6.3,14.3,6.5,14.1,6.5L.4,6.5C.2,6.5,0,6.3,0,6L0,.4C0,.2,.2,0,.4,0L14.1,0C14.3,0,14.4,.2,14.4,.4L14.4,6"/>
                    <path fill="#000000" id="shape5" transform="translate(19.39,2.59)" d="M1.3,1.7C1.3,2.4,.7,3,0,3L0,-0C.7,-0,1.3,.6,1.3,1.3" stroke="#000000"/>
                </g>
                <g id="shape6" transform="translate(204.99,6.04)">
                    <text class="st1">
                        <tspan y="6.6" x="12.2">88%</tspan>
                    </text>
                </g>
                <path fill="#000000" id="shape7" transform="translate(180.1,5.74)" d="M4.7,7.6L6.6,9.8L8.5,7.6C8.5,7.6,7.5,6.8,6.6,6.8C5.6,6.8,4.7,7.6,4.7,7.6M2.3,5L3.4,6.2C3.4,6.2,4.4,4.9,6.6,4.9C8.8,4.9,9.7,6.2,9.7,6.2L10.8,5C10.8,5,8.8,3.3,6.6,3.3C4.4,3.3,2.3,5,2.3,5M6.6,-0C3,-0,0,2.8,0,2.8L1.1,3.9C1.1,3.9,3.3,1.6,6.6,1.6C9.9,1.6,12.1,3.9,12.1,3.9L13.1,2.8C13.1,2.8,10.2,-0,6.6,-0"/>
                <g transform="translate(198.27,5.54)">
                    <path fill="#000000" id="shape8" transform="translate(12.52,0)" d="M0,0L1.8,0L1.8,10.2L0,10.2L0,0z"/>
                    <path fill="#000000" id="shape9" transform="translate(8.35,1.74)" d="M0,0L1.8,0L1.8,8.4L0,8.4L0,0z"/>
                    <path fill="#000000" id="shape10" transform="translate(4.17,4.34)" d="M0,0L1.8,0L1.8,5.8L0,5.8L0,0z"/>
                    <path fill="#000000" id="shape11" transform="translate(-0,6.51)" d="M0,0L1.8,0L1.8,3.6L0,3.6L0,0z"/>
                </g>
                <path fill="#000000" id="shape12" transform="translate(6.79,3.9)" d="M1.2,0L12.2,0C12.9,0,13.4,.5,13.4,1.2L13.4,8.9C13.4,9.5,12.9,10.1,12.2,10.1L5.5,10.1L2.4,12.2L2.4,10.1L1.2,10.1C.5,10.1,0,9.5,0,8.9L0,1.2C0,.5,.5,0,1.2,0z"/>
                <path fill="#ffffff" id="shape13" transform="translate(9.71,9.57)" d="M.2,-0C.2,-0,1.9,.5,3.8,.5C5.7,.5,7.3,-0,7.3,-0C7.5,-0,7.5,.1,7.5,.2C7.5,.3,7.5,.4,7.3,.4C7.3,.4,5.9,.9,3.8,.9C1.7,.9,.2,.4,.2,.4C.1,.4,0,.3,0,.2C0,.1,.1,-0,.2,-0z" stroke="#ffffff"/>
                <g transform="translate(10.51,6.47)">
                    <path fill="#ffffff" id="shape14" transform="translate(-0,0)" d="M-0,.6C-0,.3,.3,0,.6,0C.9,0,1.2,.3,1.2,.6C1.2,.9,.9,1.2,.6,1.2C.3,1.2,-0,.9,-0,.6z" stroke="#ffffff"/>
                    <path fill="#ffffff" id="shape15" transform="translate(4.77,0)" d="M-0,.6C-0,.3,.3,0,.6,0C.9,0,1.2,.3,1.2,.6C1.2,.9,.9,1.2,.6,1.2C.3,1.2,-0,.9,-0,.6z" stroke="#ffffff"/>
                </g>
                <g transform="translate(28,4.2)">
                    <path fill="#000000" id="shape16" transform="translate(-0.06,6.82)" d="M1.6,1.1C1.6,1.1,7.2,-1.4,12.7,1.1C12.7,1.1,14.9,2,14.3,3.7C14.3,3.7,13.9,4.8,13.6,4.8L10.7,4.1C10.7,4.1,10.4,4,10.3,3.6L9.9,2.6C9.9,2.6,9.7,2.1,9.2,2C9.2,2,7.2,1.5,5.2,2C5.2,2,4.5,2.1,4.4,2.6L4.1,3.6C4.1,3.6,4.1,3.9,3.6,4.1L1,4.7C1,4.7,.5,4.9,.4,4.6C.1,3.9,-0.2,2.4,.4,1.8C.4,1.8,1.2,1.3,1.6,1.1z"/>
                    <path fill="#000000" id="shape17" transform="translate(2.67,-0)" d="M8.9,.9L4.4,5.6L.9,1.9L0,0L2.7,0L1.8,1L4.4,3.8L8.9,.9z"/>
                </g>
            </g>
            <g transform="translate(13.69,78)">
                <path fill="#1bbc9d" id="shape18" d="M0,0L290,0L290,40L0,40L0,0z" stroke="#1bbc9d"/>
                <path fill="#ffffff" id="shape19" transform="translate(9.59,15.01)" d="M5.5,0L1.6,4.9L5.5,10L3.9,10L0,5L3.9,0L5.5,0z" stroke="#7eccb6"/>
                <g transform="translate(265.61,11.08)">
                    <path fill="#ffffff" id="shape20" d="M0,0L3.8,0L3.8,3.9L0,3.9L0,0z" stroke="#7eccb6"/>
                    <path fill="#ffffff" id="shape21" transform="translate(0,14.46)" d="M0,0L3.8,0L3.8,3.9L0,3.9L0,0z" stroke="#7eccb6"/>
                    <path fill="#ffffff" id="shape22" transform="translate(0,6.99)" d="M0,0L3.8,0L3.8,3.9L0,3.9L0,0z" stroke="#7eccb6"/>
                </g>
            </g>
            <g>
                <g transform="translate(318.23,107.76)">
                    <path fill="#ffffff" stroke-width="0.5" id="shape23" transform="translate(0.05,120.65)" d="M-0.1,0L2.2,0C3.3,0,4.1,.9,4.1,2.1L4.1,42.9C4.1,44,3.3,45,2.2,45L-0.1,45L-0.1,0z" stroke="#808080"/>
                    <path fill="#ffffff" stroke-width="0.5" id="shape24" transform="matrix(-1,0,0,1,5.7,0)" d="M1.8,0L5.6,0L5.6,99.5L1.8,99.5C.8,99.5,-0.1,98.6,-0.1,97.5L-0.1,1.9C-0.1,.8,.8,0,1.8,0z" stroke="#808080"/>
                </g>
                <path fill="#ffffff" stroke-width="0.5" id="shape25" d="M30.2,0L287.8,0C304.5,0,318,13.5,318,30.2L318,611.8C318,628.5,304.5,642,287.8,642L30.2,642C13.5,642,0,628.5,0,611.8L0,30.2C0,13.5,13.5,0,30.2,0zM14,576.3L304,576.3L304,58.2L14,58.2L14,576.3z" stroke="#808080"/>
                <g transform="translate(106.94,25.58)">
                    <path fill="#ffffff" stroke-width="0.5" id="shape26" transform="translate(0,2.06)" d="M3.2,0L12.5,0C14.3,0,15.7,1.4,15.7,3.2C15.7,5,14.3,6.4,12.5,6.4L3.2,6.4C1.4,6.4,0,5,0,3.2C0,1.4,1.4,0,3.2,0z" stroke="#808080"/>
                    <path fill="#ffffff" stroke-width="0.5" id="shape27" transform="translate(31.07,2.24)" d="M3,0L32.7,0C34.4,0,35.7,1.4,35.7,3C35.7,4.7,34.4,6.1,32.7,6.1L3,6.1C1.4,6.1,0,4.7,0,3C0,1.4,1.4,0,3,0z" stroke="#808080"/>
                    <path fill="#ffffff" stroke-width="0.5" id="shape28" transform="translate(93.57,0)" d="M0,5.3C0,2.4,2.4,0,5.3,0C8.2,0,10.6,2.4,10.6,5.3C10.6,8.2,8.2,10.6,5.3,10.6C2.4,10.6,0,8.2,0,5.3z" stroke="#808080"/>
                </g>
                <g transform="translate(55.23,600.24)">
                    <path fill="#ffffff" stroke-width="0.5" id="shape29" transform="translate(-0,0)" d="M2.5,0L10.7,0C12.1,0,13.2,1.1,13.2,2.5L13.2,10.7C13.2,12.1,12.1,13.2,10.7,13.2L2.5,13.2C1.1,13.2,0,12.1,0,10.7L0,2.5C0,1.1,1.1,0,2.5,0z" stroke="#808080"/>
                    <path fill="#ffffff" stroke-width="0.5" id="shape30" transform="translate(100.52,0.36)" d="M0,6.3C0,2.8,2.8,0,6.3,0C9.7,0,12.5,2.8,12.5,6.3C12.5,9.7,9.7,12.5,6.3,12.5C2.8,12.5,0,9.7,0,6.3z" stroke="#808080"/>
                    <path fill="#ffffff" stroke-width="0.5" id="shape31" transform="translate(201.8,0.21)" d="M-5.7,6.4L5.7,0L5.7,12.8L-5.7,6.4z" stroke="#808080"/>
                </g>
            </g>
            <path fill="#ffffff" id="shape32" transform="translate(239,89.5)" d="M8.5,20.8M8.5,19.3zM9.1,7.9L9.1,0L7.9,0L7.9,7.9L0,7.9L0,9.1L7.9,9.1L7.9,17L9.1,17L9.1,9.1L17,9.1L17,7.9L9.1,7.9z" stroke="#7eccb6"/>
            <g id="shape33" transform="translate(59.04,72)">
                <text class="st2">
                    <tspan y="31.5" x="9">Billings Logan Intl</tspan>
                </text>
            </g>
            <g transform="translate(22.1,132)">
                <path fill="#ffffff" id="shape34" d="M273.8,437L273.8,0L0,0L0,437L273.8,437z" stroke="#3498db"/>
            </g>
            <g transform="translate(26.19,132)">
                <path fill="#c9c9c9" id="shape35" transform="translate(0,0.92)" d="M2.3,0L148.4,0C149.7,0,150.8,.5,150.8,1.1L150.8,29.9C150.8,30.6,149.7,31.1,148.4,31.1L2.3,31.1C1,31.1,0,30.6,0,29.9L0,1.1C0,.5,1,0,2.3,0z"/>
                <g id="shape36" transform="translate(0,-0.03)">
                    <path fill="#fcfcfc" d="M2.3,0L148.4,0C149.7,0,150.8,.5,150.8,1.1L150.8,29.9C150.8,30.6,149.7,31.1,148.4,31.1L2.3,31.1C1,31.1,0,30.6,0,29.9L0,1.1C0,.5,1,0,2.3,0z"/>
                    <text class="st3">
                        <tspan y="15" x="4.4">Billings Logan Intl</tspan>
                    </text>
                </g>
            </g>
            <g transform="translate(177,132)">
                <path fill="#c9c9c9" id="shape37" transform="translate(0,0.92)" d="M.9,0L61,0C61.5,0,62,.5,62,1.1L62,29.9C62,30.6,61.5,31.1,61,31.1L.9,31.1C.4,31.1,0,30.6,0,29.9L0,1.1C0,.5,.4,0,.9,0z"/>
                <g id="shape38" transform="translate(0,-0.03)">
                    <path fill="#fcfcfc" d="M.9,0L61,0C61.5,0,62,.5,62,1.1L62,29.9C62,30.6,61.5,31.1,61,31.1L.9,31.1C.4,31.1,0,30.6,0,29.9L0,1.1C0,.5,.4,0,.9,0z"/>
                    <text class="st3">
                        <tspan y="19.1" x="8">METAR</tspan>
                    </text>
                </g>
            </g>
            <g transform="translate(239,132)">
                <path fill="#c9c9c9" id="shape39" transform="translate(0,0.92)" d="M.9,0L56,0C56.5,0,56.9,.5,56.9,1.1L56.9,29.9C56.9,30.6,56.5,31.1,56,31.1L.9,31.1C.4,31.1,0,30.6,0,29.9L0,1.1C0,.5,.4,0,.9,0z"/>
                <g id="shape40" transform="translate(0,-0.03)">
                    <path fill="#ffaf00" d="M.9,0L56,0C56.5,0,56.9,.5,56.9,1.1L56.9,29.9C56.9,30.6,56.5,31.1,56,31.1L.9,31.1C.4,31.1,0,30.6,0,29.9L0,1.1C0,.5,.4,0,.9,0z" stroke="#ffaf00"/>
                    <text class="st4">
                        <tspan y="19.1" x="10.5">MVFR</tspan>
                    </text>
                </g>
            </g>
            <path stroke-width="1.33333" fill="none" id="shape41" transform="translate(26,166)" d="M0,0L264,0" stroke="#1bbc9d"/>
            <g transform="translate(32.69,169)">
                <path fill="#eeeeee" id="shape42" d="M1.8,0L250.2,0C251.2,0,252,.8,252,1.8L252,240.2C252,241.2,251.2,242,250.2,242L1.8,242C.8,242,0,241.2,0,240.2L0,1.8C0,.8,.8,0,1.8,0z" stroke="#eeeeee"/>
                <g id="shape43" transform="translate(14.53,51.49)">
                    <text class="st3">
                        <tspan y="14" x="8.1">Wind</tspan>
                    </text>
                </g>
                <g id="shape44" transform="translate(14.53,91.66)">
                    <text class="st3">
                        <tspan y="14" x="8.1">Weather</tspan>
                    </text>
                </g>
                <g id="shape45" transform="translate(14.53,131.84)">
                    <text class="st3">
                        <tspan y="14" x="8.1">Clouds</tspan>
                    </text>
                </g>
                <g id="shape46" transform="translate(14.53,172.01)">
                    <text class="st3">
                        <tspan y="14" x="8.1">Visibility</tspan>
                    </text>
                </g>
                <g id="shape47" transform="translate(14.53,212.19)">
                    <text class="st3">
                        <tspan y="14" x="8.1">Temperature</tspan>
                    </text>
                </g>
                <g transform="translate(0,41.21)">
                    <path fill="none" id="shape48" transform="translate(0,-0)" d="M0,0L251,0" stroke="#b4b5b5"/>
                    <path fill="none" id="shape49" transform="translate(0,40.46)" d="M0,0L251,0" stroke="#b4b5b5"/>
                    <path fill="none" id="shape50" transform="translate(0,81.4)" d="M0,0L251,0" stroke="#b4b5b5"/>
                    <path fill="none" id="shape51" transform="translate(0,122.1)" d="M0,0L251,0" stroke="#b4b5b5"/>
                </g>
            </g>
            <path fill="none" id="shape52" transform="translate(33.21,371.72)" d="M0,0L251,0" stroke="#b4b5b5"/>
            <g id="shape53" transform="translate(47.53,182.96)">
                <text class="st3">
                    <tspan y="14" x="8.1">Issued</tspan>
                </text>
            </g>
            <g id="shape54" transform="translate(130.88,182.96)">
                <text class="st3">
                    <tspan y="14" x="8.1">4:53, 23 min. ago</tspan>
                </text>
            </g>
            <g id="shape55" transform="translate(130.88,219)">
                <text class="st3">
                    <tspan y="14" class="st5" x="8.1">330 at 8kt</tspan>
                </text>
            </g>
            <g id="shape56" transform="translate(130.88,263.96)">
                <text class="st3">
                    <tspan y="14" class="st5" x="8.1">Light rain</tspan>
                </text>
            </g>
            <g id="shape57" transform="translate(130.88,300)">
                <text class="st3">
                    <tspan y="14" class="st5" x="8.1">Few at 500 ft AGL</tspan>
                </text>
            </g>
            <g id="shape58" transform="translate(130.88,337.48)">
                <text class="st3">
                    <tspan y="14" class="st5" x="8.1">14.5 km</tspan>
                </text>
            </g>
            <g id="shape59" transform="translate(130.88,380.7)">
                <text class="st3">
                    <tspan y="14" class="st5" x="8.1">7 C, dew point 7 C</tspan>
                </text>
            </g>
            <g transform="translate(32.18,410)">
                <g transform="translate(-0,26.22)">
                    <path fill="none" id="shape60" transform="translate(0,-0)" d="M0,0L251,0" stroke="#b4b5b5"/>
                    <path fill="none" id="shape61" transform="translate(0,25.75)" d="M0,0L251,0" stroke="#b4b5b5"/>
                    <path fill="none" id="shape62" transform="translate(0,51.8)" d="M0,0L251,0" stroke="#b4b5b5"/>
                    <path fill="none" id="shape63" transform="translate(0,77.7)" d="M0,0L251,0" stroke="#b4b5b5"/>
                </g>
                <path fill="#eeeeee" id="shape64" d="M1.8,0L250.2,0C251.2,0,252,.5,252,1.1L252,152.8C252,153.5,251.2,154,250.2,154L1.8,154C.8,154,0,153.5,0,152.8L0,1.1C0,.5,.8,0,1.8,0z" stroke="#eeeeee"/>
                <g transform="translate(8.9,5.74)">
                    <path fill="#ffffff" id="shape65" transform="translate(-0.03,-0.03)" d="M12.7,0C19.7,0,25.4,3.6,25.4,8.1C25.4,12.6,19.7,16.2,12.7,16.2C5.7,16.2,0,12.6,0,8.1C0,3.6,5.7,0,12.7,0M12.7,15.6C19.2,15.6,24.4,12.2,24.4,8.1C24.4,4,19.2,.6,12.7,.6C6.2,.6,1,4,1,8.1C1,12.2,6.2,15.6,12.7,15.6" stroke="#ffffff"/>
                    <path fill="#ffffff" id="shape66" transform="translate(5.47,6.85)" d="M14.4,0L7.2,5.2L0,0L14.4,0z" stroke="#ffffff"/>
                </g>
            </g>
            <path fill="none" id="shape67" transform="translate(33.72,410.72)" d="M0,0L251,0" stroke="#b4b5b5"/>
            <g transform="translate(46.7,418.86)">
                <g id="shape68" transform="translate(0,42.62)">
                    <text class="st3">
                        <tspan y="14" x="8.1">QNH</tspan>
                    </text>
                </g>
                <g id="shape69" transform="translate(0,82.8)">
                    <text class="st3">
                        <tspan y="14" x="8.1">Color State</tspan>
                    </text>
                </g>
                <g id="shape70" transform="translate(0,122.98)">
                    <text class="st3">
                        <tspan y="14" x="8.1">Daylight</tspan>
                    </text>
                </g>
                <g id="shape71" transform="translate(0.83,0)">
                    <text class="st3">
                        <tspan y="14" x="8.1">Humidity</tspan>
                    </text>
                </g>
                <g id="shape72" transform="translate(84.17,0.83)">
                    <text class="st3">
                        <tspan y="14" class="st5" x="8.1">98%</tspan>
                    </text>
                </g>
                <g id="shape73" transform="translate(84.17,46.14)">
                    <text class="st3">
                        <tspan y="14" class="st5" x="8.1">1016 hPa</tspan>
                    </text>
                </g>
                <g id="shape74" transform="translate(84.17,82.1)">
                    <text class="st6">
                        <tspan y="14" x="8.1">White</tspan>
                    </text>
                </g>
                <g id="shape75" transform="translate(84.17,124.1)">
                    <text class="st3">
                        <tspan y="6.5" class="st5" x="8.1">Sunrise 6:59, </tspan>
                        <tspan y="21.5" class="st5" x="8.1">sunset 19:16</tspan>
                    </text>
                </g>
            </g>
            <path fill="none" id="shape76" transform="translate(33.72,451.28)" d="M0,0L251,0" stroke="#b4b5b5"/>
            <path fill="none" id="shape77" transform="translate(33.72,491.43)" d="M0,0L251,0" stroke="#b4b5b5"/>
            <path fill="none" id="shape78" transform="translate(33.72,531.58)" d="M0,0L251,0" stroke="#b4b5b5"/>
        </g>
        <g id="shape79" transform="translate(823,718)">
            <text class="st7">
                <tspan y="9.5" x="21">3. Weather Detail </tspan>
                <tspan y="28.5" x="58">Screen</tspan>
            </text>
        </g>
    </g>
</svg>
