<svg xmlns:xlink="http://www.w3.org/1999/xlink" width="1133" height="1603" xmlns="http://www.w3.org/2000/svg" xmlns:ev="http://www.w3.org/2001/xml-events" viewBox="0 0 1133 1603"><style type="text/css"><![CDATA[
.st3 {fill:#000000;font-family:Arial;font-size:10pt;font-weight:bold}
.st6 {fill:#000000;font-family:Arial;font-size:10pt}
.st10 {fill:#000000;font-family:Arial;font-size:12pt;font-weight:bold}
.st8 {fill:#000000;font-family:Arial;font-size:12pt}
.st1 {fill:#1f6391;font-family:Arial;font-size:6pt}
.st7 {fill:#9b9b9b;font-family:Arial;font-size:18pt}
.st4 {fill:#ffffff;font-family:Arial;font-size:10pt}
.st2 {fill:#ffffff;font-family:Arial;font-size:14pt}
.st9 {fill:#ffffff;font-family:Arial;font-size:18pt}
.st5 {font-weight:normal}
]]></style><defs><filter id="filter1"><feGaussianBlur stdDeviation="1"/></filter></defs><g id="page1" transform="translate(5,5)"><rect width="1123" fill="#ffffff" y="0" height="794" stroke="#808080" x="0"/><g transform="translate(744,66)"><g transform="translate(13.69,58)"><path fill="#e6e6e8" id="shape1" d="M0,0L290.3,0L290.3,20L0,20L0,0z"/><g id="shape2" transform="translate(255.32,4.39)"><text class="st1"><tspan y="3.2" x="10.1">8:2</tspan><tspan y="13.2" x="14.1">8</tspan></text></g><g transform="translate(234.65,6.52)"><path fill="none" id="shape3" transform="translate(-0,0)" d="M18.1,-0L.8,-0C.4,-0,0,.4,0,.9L0,7.3C0,7.8,.4,8.2,.8,8.2L18.1,8.2C18.6,8.2,19,7.8,19,7.3L19,.9C19,.4,18.6,-0,18.1,-0" stroke="#000000"/><path fill="#000000" id="shape4" transform="translate(0.84,0.86)" d="M14.4,6C14.4,6.3,14.3,6.5,14.1,6.5L.4,6.5C.2,6.5,0,6.3,0,6L0,.4C0,.2,.2,0,.4,0L14.1,0C14.3,0,14.4,.2,14.4,.4L14.4,6"/><path fill="#000000" id="shape5" transform="translate(19.39,2.59)" d="M1.3,1.7C1.3,2.4,.7,3,0,3L0,-0C.7,-0,1.3,.6,1.3,1.3" stroke="#000000"/></g><g id="shape6" transform="translate(204.99,6.04)"><text class="st1"><tspan y="6.6" x="12.2">88%</tspan></text></g><path fill="#000000" id="shape7" transform="translate(180.1,5.74)" d="M4.7,7.6L6.6,9.8L8.5,7.6C8.5,7.6,7.5,6.8,6.6,6.8C5.6,6.8,4.7,7.6,4.7,7.6M2.3,5L3.4,6.2C3.4,6.2,4.4,4.9,6.6,4.9C8.8,4.9,9.7,6.2,9.7,6.2L10.8,5C10.8,5,8.8,3.3,6.6,3.3C4.4,3.3,2.3,5,2.3,5M6.6,-0C3,-0,0,2.8,0,2.8L1.1,3.9C1.1,3.9,3.3,1.6,6.6,1.6C9.9,1.6,12.1,3.9,12.1,3.9L13.1,2.8C13.1,2.8,10.2,-0,6.6,-0"/><g transform="translate(198.27,5.54)"><path fill="#000000" id="shape8" transform="translate(12.52,0)" d="M0,0L1.8,0L1.8,10.2L0,10.2L0,0z"/><path fill="#000000" id="shape9" transform="translate(8.35,1.74)" d="M0,0L1.8,0L1.8,8.4L0,8.4L0,0z"/><path fill="#000000" id="shape10" transform="translate(4.17,4.34)" d="M0,0L1.8,0L1.8,5.8L0,5.8L0,0z"/><path fill="#000000" id="shape11" transform="translate(-0,6.51)" d="M0,0L1.8,0L1.8,3.6L0,3.6L0,0z"/></g><path fill="#000000" id="shape12" transform="translate(6.79,3.9)" d="M1.2,0L12.2,0C12.9,0,13.4,.5,13.4,1.2L13.4,8.9C13.4,9.5,12.9,10.1,12.2,10.1L5.5,10.1L2.4,12.2L2.4,10.1L1.2,10.1C.5,10.1,0,9.5,0,8.9L0,1.2C0,.5,.5,0,1.2,0z"/><path fill="#ffffff" id="shape13" transform="translate(9.71,9.57)" d="M.2,-0C.2,-0,1.9,.5,3.8,.5C5.7,.5,7.3,-0,7.3,-0C7.5,-0,7.5,.1,7.5,.2C7.5,.3,7.5,.4,7.3,.4C7.3,.4,5.9,.9,3.8,.9C1.7,.9,.2,.4,.2,.4C.1,.4,0,.3,0,.2C0,.1,.1,-0,.2,-0z" stroke="#ffffff"/><g transform="translate(10.51,6.47)"><path fill="#ffffff" id="shape14" transform="translate(-0,0)" d="M-0,.6C-0,.3,.3,0,.6,0C.9,0,1.2,.3,1.2,.6C1.2,.9,.9,1.2,.6,1.2C.3,1.2,-0,.9,-0,.6z" stroke="#ffffff"/><path fill="#ffffff" id="shape15" transform="translate(4.77,0)" d="M-0,.6C-0,.3,.3,0,.6,0C.9,0,1.2,.3,1.2,.6C1.2,.9,.9,1.2,.6,1.2C.3,1.2,-0,.9,-0,.6z" stroke="#ffffff"/></g><g transform="translate(28,4.2)"><path fill="#000000" id="shape16" transform="translate(-0.06,6.82)" d="M1.6,1.1C1.6,1.1,7.2,-1.4,12.7,1.1C12.7,1.1,14.9,2,14.3,3.7C14.3,3.7,13.9,4.8,13.6,4.8L10.7,4.1C10.7,4.1,10.4,4,10.3,3.6L9.9,2.6C9.9,2.6,9.7,2.1,9.2,2C9.2,2,7.2,1.5,5.2,2C5.2,2,4.5,2.1,4.4,2.6L4.1,3.6C4.1,3.6,4.1,3.9,3.6,4.1L1,4.7C1,4.7,.5,4.9,.4,4.6C.1,3.9,-0.2,2.4,.4,1.8C.4,1.8,1.2,1.3,1.6,1.1z"/><path fill="#000000" id="shape17" transform="translate(2.67,-0)" d="M8.9,.9L4.4,5.6L.9,1.9L0,0L2.7,0L1.8,1L4.4,3.8L8.9,.9z"/></g></g><g transform="translate(13.69,78)"><path fill="#1bbc9d" id="shape18" d="M0,0L290,0L290,40L0,40L0,0z" stroke="#1bbc9d"/><path fill="#ffffff" id="shape19" transform="translate(9.59,15.01)" d="M5.5,0L1.6,4.9L5.5,10L3.9,10L0,5L3.9,0L5.5,0z" stroke="#7eccb6"/><g transform="translate(265.61,11.08)"><path fill="#ffffff" id="shape20" d="M0,0L3.8,0L3.8,3.9L0,3.9L0,0z" stroke="#7eccb6"/><path fill="#ffffff" id="shape21" transform="translate(0,14.46)" d="M0,0L3.8,0L3.8,3.9L0,3.9L0,0z" stroke="#7eccb6"/><path fill="#ffffff" id="shape22" transform="translate(0,6.99)" d="M0,0L3.8,0L3.8,3.9L0,3.9L0,0z" stroke="#7eccb6"/></g></g><g><g transform="translate(318.23,107.76)"><path fill="#ffffff" stroke-width="0.5" id="shape23" transform="translate(0.05,120.65)" d="M-0.1,0L2.2,0C3.3,0,4.1,.9,4.1,2.1L4.1,42.9C4.1,44,3.3,45,2.2,45L-0.1,45L-0.1,0z" stroke="#808080"/><path fill="#ffffff" stroke-width="0.5" id="shape24" transform="matrix(-1,0,0,1,5.7,0)" d="M1.8,0L5.6,0L5.6,99.5L1.8,99.5C.8,99.5,-0.1,98.6,-0.1,97.5L-0.1,1.9C-0.1,.8,.8,0,1.8,0z" stroke="#808080"/></g><path fill="#ffffff" stroke-width="0.5" id="shape25" d="M30.2,0L287.8,0C304.5,0,318,13.5,318,30.2L318,611.8C318,628.5,304.5,642,287.8,642L30.2,642C13.5,642,0,628.5,0,611.8L0,30.2C0,13.5,13.5,0,30.2,0zM14,576.3L304,576.3L304,58.2L14,58.2L14,576.3z" stroke="#808080"/><g transform="translate(106.94,25.58)"><path fill="#ffffff" stroke-width="0.5" id="shape26" transform="translate(0,2.06)" d="M3.2,0L12.5,0C14.3,0,15.7,1.4,15.7,3.2C15.7,5,14.3,6.4,12.5,6.4L3.2,6.4C1.4,6.4,0,5,0,3.2C0,1.4,1.4,0,3.2,0z" stroke="#808080"/><path fill="#ffffff" stroke-width="0.5" id="shape27" transform="translate(31.07,2.24)" d="M3,0L32.7,0C34.4,0,35.7,1.4,35.7,3C35.7,4.7,34.4,6.1,32.7,6.1L3,6.1C1.4,6.1,0,4.7,0,3C0,1.4,1.4,0,3,0z" stroke="#808080"/><path fill="#ffffff" stroke-width="0.5" id="shape28" transform="translate(93.57,0)" d="M0,5.3C0,2.4,2.4,0,5.3,0C8.2,0,10.6,2.4,10.6,5.3C10.6,8.2,8.2,10.6,5.3,10.6C2.4,10.6,0,8.2,0,5.3z" stroke="#808080"/></g><g transform="translate(55.23,600.24)"><path fill="#ffffff" stroke-width="0.5" id="shape29" transform="translate(-0,0)" d="M2.5,0L10.7,0C12.1,0,13.2,1.1,13.2,2.5L13.2,10.7C13.2,12.1,12.1,13.2,10.7,13.2L2.5,13.2C1.1,13.2,0,12.1,0,10.7L0,2.5C0,1.1,1.1,0,2.5,0z" stroke="#808080"/><path fill="#ffffff" stroke-width="0.5" id="shape30" transform="translate(100.52,0.36)" d="M0,6.3C0,2.8,2.8,0,6.3,0C9.7,0,12.5,2.8,12.5,6.3C12.5,9.7,9.7,12.5,6.3,12.5C2.8,12.5,0,9.7,0,6.3z" stroke="#808080"/><path fill="#ffffff" stroke-width="0.5" id="shape31" transform="translate(201.8,0.21)" d="M-5.7,6.4L5.7,0L5.7,12.8L-5.7,6.4z" stroke="#808080"/></g></g><path fill="#ffffff" id="shape32" transform="translate(239,89.5)" d="M8.5,20.8M8.5,19.3zM9.1,7.9L9.1,0L7.9,0L7.9,7.9L0,7.9L0,9.1L7.9,9.1L7.9,17L9.1,17L9.1,9.1L17,9.1L17,7.9L9.1,7.9z" stroke="#7eccb6"/><g id="shape33" transform="translate(59.04,72)"><text class="st2"><tspan y="31.5" x="9">Billings Logan Intl</tspan></text></g><g transform="translate(22.1,132)"><path fill="#ffffff" id="shape34" d="M273.8,437L273.8,0L0,0L0,437L273.8,437z" stroke="#3498db"/></g><g transform="translate(26.19,132)"><path fill="#c9c9c9" id="shape35" transform="translate(0,0.92)" d="M2.3,0L148.4,0C149.7,0,150.8,.5,150.8,1.1L150.8,29.9C150.8,30.6,149.7,31.1,148.4,31.1L2.3,31.1C1,31.1,0,30.6,0,29.9L0,1.1C0,.5,1,0,2.3,0z"/><g id="shape36" transform="translate(0,-0.03)"><path fill="#fcfcfc" d="M2.3,0L148.4,0C149.7,0,150.8,.5,150.8,1.1L150.8,29.9C150.8,30.6,149.7,31.1,148.4,31.1L2.3,31.1C1,31.1,0,30.6,0,29.9L0,1.1C0,.5,1,0,2.3,0z"/><text class="st3"><tspan y="15" x="4.4">Billings Logan Intl</tspan></text></g></g><g transform="translate(177,132)"><path fill="#c9c9c9" id="shape37" transform="translate(0,0.92)" d="M.9,0L61,0C61.5,0,62,.5,62,1.1L62,29.9C62,30.6,61.5,31.1,61,31.1L.9,31.1C.4,31.1,0,30.6,0,29.9L0,1.1C0,.5,.4,0,.9,0z"/><g id="shape38" transform="translate(0,-0.03)"><path fill="#fcfcfc" d="M.9,0L61,0C61.5,0,62,.5,62,1.1L62,29.9C62,30.6,61.5,31.1,61,31.1L.9,31.1C.4,31.1,0,30.6,0,29.9L0,1.1C0,.5,.4,0,.9,0z"/><text class="st3"><tspan y="19.1" x="8">METAR</tspan></text></g></g><g transform="translate(239,132)"><path fill="#c9c9c9" id="shape39" transform="translate(0,0.92)" d="M.9,0L56,0C56.5,0,56.9,.5,56.9,1.1L56.9,29.9C56.9,30.6,56.5,31.1,56,31.1L.9,31.1C.4,31.1,0,30.6,0,29.9L0,1.1C0,.5,.4,0,.9,0z"/><g id="shape40" transform="translate(0,-0.03)"><path fill="#ffaf00" d="M.9,0L56,0C56.5,0,56.9,.5,56.9,1.1L56.9,29.9C56.9,30.6,56.5,31.1,56,31.1L.9,31.1C.4,31.1,0,30.6,0,29.9L0,1.1C0,.5,.4,0,.9,0z" stroke="#ffaf00"/><text class="st4"><tspan y="19.1" x="10.5">MVFR</tspan></text></g></g><path stroke-width="1.33333" fill="none" id="shape41" transform="translate(26,166)" d="M0,0L264,0" stroke="#1bbc9d"/><g transform="translate(32.69,169)"><path fill="#eeeeee" id="shape42" d="M1.8,0L250.2,0C251.2,0,252,.8,252,1.8L252,240.2C252,241.2,251.2,242,250.2,242L1.8,242C.8,242,0,241.2,0,240.2L0,1.8C0,.8,.8,0,1.8,0z" stroke="#eeeeee"/><g id="shape43" transform="translate(14.53,51.49)"><text class="st3"><tspan y="14" x="8.1">Wind</tspan></text></g><g id="shape44" transform="translate(14.53,91.66)"><text class="st3"><tspan y="14" x="8.1">Weather</tspan></text></g><g id="shape45" transform="translate(14.53,131.84)"><text class="st3"><tspan y="14" x="8.1">Clouds</tspan></text></g><g id="shape46" transform="translate(14.53,172.01)"><text class="st3"><tspan y="14" x="8.1">Visibility</tspan></text></g><g id="shape47" transform="translate(14.53,212.19)"><text class="st3"><tspan y="14" x="8.1">Temperature</tspan></text></g><g transform="translate(0,41.21)"><path fill="none" id="shape48" transform="translate(0,-0)" d="M0,0L251,0" stroke="#b4b5b5"/><path fill="none" id="shape49" transform="translate(0,40.46)" d="M0,0L251,0" stroke="#b4b5b5"/><path fill="none" id="shape50" transform="translate(0,81.4)" d="M0,0L251,0" stroke="#b4b5b5"/><path fill="none" id="shape51" transform="translate(0,122.1)" d="M0,0L251,0" stroke="#b4b5b5"/></g></g><path fill="none" id="shape52" transform="translate(33.21,371.72)" d="M0,0L251,0" stroke="#b4b5b5"/><g id="shape53" transform="translate(47.53,182.96)"><text class="st3"><tspan y="14" x="8.1">Issued</tspan></text></g><g id="shape54" transform="translate(130.88,182.96)"><text class="st3"><tspan y="14" x="8.1">4:53, 23 min. ago</tspan></text></g><g id="shape55" transform="translate(130.88,219)"><text class="st3"><tspan y="14" class="st5" x="8.1">330 at 8kt</tspan></text></g><g id="shape56" transform="translate(130.88,263.96)"><text class="st3"><tspan y="14" class="st5" x="8.1">Light rain</tspan></text></g><g id="shape57" transform="translate(130.88,300)"><text class="st3"><tspan y="14" class="st5" x="8.1">Few at 500 ft AGL</tspan></text></g><g id="shape58" transform="translate(130.88,337.48)"><text class="st3"><tspan y="14" class="st5" x="8.1">14.5 km</tspan></text></g><g id="shape59" transform="translate(130.88,380.7)"><text class="st3"><tspan y="14" class="st5" x="8.1">7 C, dew point 7 C</tspan></text></g><g transform="translate(32.18,410)"><g transform="translate(-0,26.22)"><path fill="none" id="shape60" transform="translate(0,-0)" d="M0,0L251,0" stroke="#b4b5b5"/><path fill="none" id="shape61" transform="translate(0,25.75)" d="M0,0L251,0" stroke="#b4b5b5"/><path fill="none" id="shape62" transform="translate(0,51.8)" d="M0,0L251,0" stroke="#b4b5b5"/><path fill="none" id="shape63" transform="translate(0,77.7)" d="M0,0L251,0" stroke="#b4b5b5"/></g><path fill="#eeeeee" id="shape64" d="M1.8,0L250.2,0C251.2,0,252,.5,252,1.1L252,152.8C252,153.5,251.2,154,250.2,154L1.8,154C.8,154,0,153.5,0,152.8L0,1.1C0,.5,.8,0,1.8,0z" stroke="#eeeeee"/><g transform="translate(8.9,5.74)"><path fill="#ffffff" id="shape65" transform="translate(-0.03,-0.03)" d="M12.7,0C19.7,0,25.4,3.6,25.4,8.1C25.4,12.6,19.7,16.2,12.7,16.2C5.7,16.2,0,12.6,0,8.1C0,3.6,5.7,0,12.7,0M12.7,15.6C19.2,15.6,24.4,12.2,24.4,8.1C24.4,4,19.2,.6,12.7,.6C6.2,.6,1,4,1,8.1C1,12.2,6.2,15.6,12.7,15.6" stroke="#ffffff"/><path fill="#ffffff" id="shape66" transform="translate(5.47,6.85)" d="M14.4,0L7.2,5.2L0,0L14.4,0z" stroke="#ffffff"/></g></g><path fill="none" id="shape67" transform="translate(33.72,410.72)" d="M0,0L251,0" stroke="#b4b5b5"/><g transform="translate(46.7,418.86)"><g id="shape68" transform="translate(0,42.62)"><text class="st3"><tspan y="14" x="8.1">QNH</tspan></text></g><g id="shape69" transform="translate(0,82.8)"><text class="st3"><tspan y="14" x="8.1">Color State</tspan></text></g><g id="shape70" transform="translate(0,122.98)"><text class="st3"><tspan y="14" x="8.1">Daylight</tspan></text></g><g id="shape71" transform="translate(0.83,0)"><text class="st3"><tspan y="14" x="8.1">Humidity</tspan></text></g><g id="shape72" transform="translate(84.17,0.83)"><text class="st3"><tspan y="14" class="st5" x="8.1">98%</tspan></text></g><g id="shape73" transform="translate(84.17,46.14)"><text class="st3"><tspan y="14" class="st5" x="8.1">1016 hPa</tspan></text></g><g id="shape74" transform="translate(84.17,82.1)"><text class="st6"><tspan y="14" x="8.1">White</tspan></text></g><g id="shape75" transform="translate(84.17,124.1)"><text class="st3"><tspan y="6.5" class="st5" x="8.1">Sunrise 6:59, </tspan><tspan y="21.5" class="st5" x="8.1">sunset 19:16</tspan></text></g></g><path fill="none" id="shape76" transform="translate(33.72,451.28)" d="M0,0L251,0" stroke="#b4b5b5"/><path fill="none" id="shape77" transform="translate(33.72,491.43)" d="M0,0L251,0" stroke="#b4b5b5"/><path fill="none" id="shape78" transform="translate(33.72,531.58)" d="M0,0L251,0" stroke="#b4b5b5"/></g><g transform="translate(402.26,66)"><g transform="translate(13.69,58)"><path fill="#e6e6e8" id="shape79" d="M0,0L290.3,0L290.3,20L0,20L0,0z"/><g id="shape80" transform="translate(255.32,4.39)"><text class="st1"><tspan y="3.2" x="10.1">8:2</tspan><tspan y="13.2" x="14.1">8</tspan></text></g><g transform="translate(234.65,6.52)"><path fill="none" id="shape81" transform="translate(-0,0)" d="M18.1,-0L.8,-0C.4,-0,0,.4,0,.9L0,7.3C0,7.8,.4,8.2,.8,8.2L18.1,8.2C18.6,8.2,19,7.8,19,7.3L19,.9C19,.4,18.6,-0,18.1,-0" stroke="#000000"/><path fill="#000000" id="shape82" transform="translate(0.84,0.86)" d="M14.4,6C14.4,6.3,14.3,6.5,14.1,6.5L.4,6.5C.2,6.5,0,6.3,0,6L0,.4C0,.2,.2,0,.4,0L14.1,0C14.3,0,14.4,.2,14.4,.4L14.4,6"/><path fill="#000000" id="shape83" transform="translate(19.39,2.59)" d="M1.3,1.7C1.3,2.4,.7,3,0,3L0,-0C.7,-0,1.3,.6,1.3,1.3" stroke="#000000"/></g><g id="shape84" transform="translate(204.99,6.04)"><text class="st1"><tspan y="6.6" x="12.2">88%</tspan></text></g><path fill="#000000" id="shape85" transform="translate(180.1,5.74)" d="M4.7,7.6L6.6,9.8L8.5,7.6C8.5,7.6,7.5,6.8,6.6,6.8C5.6,6.8,4.7,7.6,4.7,7.6M2.3,5L3.4,6.2C3.4,6.2,4.4,4.9,6.6,4.9C8.8,4.9,9.7,6.2,9.7,6.2L10.8,5C10.8,5,8.8,3.3,6.6,3.3C4.4,3.3,2.3,5,2.3,5M6.6,-0C3,-0,0,2.8,0,2.8L1.1,3.9C1.1,3.9,3.3,1.6,6.6,1.6C9.9,1.6,12.1,3.9,12.1,3.9L13.1,2.8C13.1,2.8,10.2,-0,6.6,-0"/><g transform="translate(198.27,5.54)"><path fill="#000000" id="shape86" transform="translate(12.52,0)" d="M0,0L1.8,0L1.8,10.2L0,10.2L0,0z"/><path fill="#000000" id="shape87" transform="translate(8.35,1.74)" d="M0,0L1.8,0L1.8,8.4L0,8.4L0,0z"/><path fill="#000000" id="shape88" transform="translate(4.17,4.34)" d="M0,0L1.8,0L1.8,5.8L0,5.8L0,0z"/><path fill="#000000" id="shape89" transform="translate(-0,6.51)" d="M0,0L1.8,0L1.8,3.6L0,3.6L0,0z"/></g><path fill="#000000" id="shape90" transform="translate(6.79,3.9)" d="M1.2,0L12.2,0C12.9,0,13.4,.5,13.4,1.2L13.4,8.9C13.4,9.5,12.9,10.1,12.2,10.1L5.5,10.1L2.4,12.2L2.4,10.1L1.2,10.1C.5,10.1,0,9.5,0,8.9L0,1.2C0,.5,.5,0,1.2,0z"/><path fill="#ffffff" id="shape91" transform="translate(9.71,9.57)" d="M.2,-0C.2,-0,1.9,.5,3.8,.5C5.7,.5,7.3,-0,7.3,-0C7.5,-0,7.5,.1,7.5,.2C7.5,.3,7.5,.4,7.3,.4C7.3,.4,5.9,.9,3.8,.9C1.7,.9,.2,.4,.2,.4C.1,.4,0,.3,0,.2C0,.1,.1,-0,.2,-0z" stroke="#ffffff"/><g transform="translate(10.51,6.47)"><path fill="#ffffff" id="shape92" transform="translate(-0,0)" d="M-0,.6C-0,.3,.3,0,.6,0C.9,0,1.2,.3,1.2,.6C1.2,.9,.9,1.2,.6,1.2C.3,1.2,-0,.9,-0,.6z" stroke="#ffffff"/><path fill="#ffffff" id="shape93" transform="translate(4.77,0)" d="M-0,.6C-0,.3,.3,0,.6,0C.9,0,1.2,.3,1.2,.6C1.2,.9,.9,1.2,.6,1.2C.3,1.2,-0,.9,-0,.6z" stroke="#ffffff"/></g><g transform="translate(28,4.2)"><path fill="#000000" id="shape94" transform="translate(-0.06,6.82)" d="M1.6,1.1C1.6,1.1,7.2,-1.4,12.7,1.1C12.7,1.1,14.9,2,14.3,3.7C14.3,3.7,13.9,4.8,13.6,4.8L10.7,4.1C10.7,4.1,10.4,4,10.3,3.6L9.9,2.6C9.9,2.6,9.7,2.1,9.2,2C9.2,2,7.2,1.5,5.2,2C5.2,2,4.5,2.1,4.4,2.6L4.1,3.6C4.1,3.6,4.1,3.9,3.6,4.1L1,4.7C1,4.7,.5,4.9,.4,4.6C.1,3.9,-0.2,2.4,.4,1.8C.4,1.8,1.2,1.3,1.6,1.1z"/><path fill="#000000" id="shape95" transform="translate(2.67,-0)" d="M8.9,.9L4.4,5.6L.9,1.9L0,0L2.7,0L1.8,1L4.4,3.8L8.9,.9z"/></g></g><g><g transform="translate(318.23,107.76)"><path fill="#ffffff" stroke-width="0.5" id="shape96" transform="translate(0.05,120.65)" d="M-0.1,0L2.2,0C3.3,0,4.1,.9,4.1,2.1L4.1,42.9C4.1,44,3.3,45,2.2,45L-0.1,45L-0.1,0z" stroke="#808080"/><path fill="#ffffff" stroke-width="0.5" id="shape97" transform="matrix(-1,0,0,1,5.7,0)" d="M1.8,0L5.6,0L5.6,99.5L1.8,99.5C.8,99.5,-0.1,98.6,-0.1,97.5L-0.1,1.9C-0.1,.8,.8,0,1.8,0z" stroke="#808080"/></g><path fill="#ffffff" stroke-width="0.5" id="shape98" d="M30.2,0L287.8,0C304.5,0,318,13.5,318,30.2L318,611.8C318,628.5,304.5,642,287.8,642L30.2,642C13.5,642,0,628.5,0,611.8L0,30.2C0,13.5,13.5,0,30.2,0zM14,576.3L304,576.3L304,58.2L14,58.2L14,576.3z" stroke="#808080"/><g transform="translate(106.94,25.58)"><path fill="#ffffff" stroke-width="0.5" id="shape99" transform="translate(0,2.06)" d="M3.2,0L12.5,0C14.3,0,15.7,1.4,15.7,3.2C15.7,5,14.3,6.4,12.5,6.4L3.2,6.4C1.4,6.4,0,5,0,3.2C0,1.4,1.4,0,3.2,0z" stroke="#808080"/><path fill="#ffffff" stroke-width="0.5" id="shape100" transform="translate(31.07,2.24)" d="M3,0L32.7,0C34.4,0,35.7,1.4,35.7,3C35.7,4.7,34.4,6.1,32.7,6.1L3,6.1C1.4,6.1,0,4.7,0,3C0,1.4,1.4,0,3,0z" stroke="#808080"/><path fill="#ffffff" stroke-width="0.5" id="shape101" transform="translate(93.57,0)" d="M0,5.3C0,2.4,2.4,0,5.3,0C8.2,0,10.6,2.4,10.6,5.3C10.6,8.2,8.2,10.6,5.3,10.6C2.4,10.6,0,8.2,0,5.3z" stroke="#808080"/></g><g transform="translate(55.23,600.24)"><path fill="#ffffff" stroke-width="0.5" id="shape102" transform="translate(-0,0)" d="M2.5,0L10.7,0C12.1,0,13.2,1.1,13.2,2.5L13.2,10.7C13.2,12.1,12.1,13.2,10.7,13.2L2.5,13.2C1.1,13.2,0,12.1,0,10.7L0,2.5C0,1.1,1.1,0,2.5,0z" stroke="#808080"/><path fill="#ffffff" stroke-width="0.5" id="shape103" transform="translate(100.52,0.36)" d="M0,6.3C0,2.8,2.8,0,6.3,0C9.7,0,12.5,2.8,12.5,6.3C12.5,9.7,9.7,12.5,6.3,12.5C2.8,12.5,0,9.7,0,6.3z" stroke="#808080"/><path fill="#ffffff" stroke-width="0.5" id="shape104" transform="translate(201.8,0.21)" d="M-5.7,6.4L5.7,0L5.7,12.8L-5.7,6.4z" stroke="#808080"/></g></g><g transform="translate(13.69,78)"><path fill="#1bbc9d" id="shape105" d="M0,0L290,0L290,40L0,40L0,0z" stroke="#1bbc9d"/><path fill="#ffffff" id="shape106" transform="translate(9.59,15.01)" d="M5.5,0L1.6,4.9L5.5,10L3.9,10L0,5L3.9,0L5.5,0z" stroke="#7eccb6"/><g transform="translate(265.61,11.08)"><path fill="#ffffff" id="shape107" d="M0,0L3.8,0L3.8,3.9L0,3.9L0,0z" stroke="#7eccb6"/><path fill="#ffffff" id="shape108" transform="translate(0,14.46)" d="M0,0L3.8,0L3.8,3.9L0,3.9L0,0z" stroke="#7eccb6"/><path fill="#ffffff" id="shape109" transform="translate(0,6.99)" d="M0,0L3.8,0L3.8,3.9L0,3.9L0,0z" stroke="#7eccb6"/></g></g><path fill="#ffffff" id="shape110" transform="translate(239,89.5)" d="M8.5,20.8M8.5,19.3zM9.1,7.9L9.1,0L7.9,0L7.9,7.9L0,7.9L0,9.1L7.9,9.1L7.9,17L9.1,17L9.1,9.1L17,9.1L17,7.9L9.1,7.9z" stroke="#7eccb6"/><g id="shape111" transform="translate(59.04,72)"><text class="st2"><tspan y="31.5" x="33">My Stations</tspan></text></g><g transform="translate(22.1,132)"><path fill="#ffffff" id="shape112" d="M273.8,128L273.8,0L0,0L0,128L273.8,128z" stroke="#3498db"/></g><g transform="translate(59.04,169.5)"><path fill="#c9c9c9" id="shape113" transform="translate(0,0.92)" d="M.3,0L22.6,0C22.8,0,23,.5,23,1.1L23,29.9C23,30.6,22.8,31.1,22.6,31.1L.3,31.1C.1,31.1,0,30.6,0,29.9L0,1.1C0,.5,.1,0,.3,0z"/><g id="shape114" transform="translate(0,-0.03)"><path fill="#fcfcfc" d="M.3,0L22.6,0C22.8,0,23,.5,23,1.1L23,29.9C23,30.6,22.8,31.1,22.6,31.1L.3,31.1C.1,31.1,0,30.6,0,29.9L0,1.1C0,.5,.1,0,.3,0z"/><text class="st6"><tspan y="19.1" x="4">19</tspan></text></g></g><g transform="translate(92.96,169.5)"><path fill="#c9c9c9" id="shape115" transform="translate(0,0.92)" d="M1.1,0L70.8,0C71.5,0,72,.5,72,1.1L72,29.9C72,30.6,71.5,31.1,70.8,31.1L1.1,31.1C.5,31.1,0,30.6,0,29.9L0,1.1C0,.5,.5,0,1.1,0z"/><g id="shape116" transform="translate(0,-0.03)"><path fill="#fcfcfc" d="M1.1,0L70.8,0C71.5,0,72,.5,72,1.1L72,29.9C72,30.6,71.5,31.1,70.8,31.1L1.1,31.1C.5,31.1,0,30.6,0,29.9L0,1.1C0,.5,.5,0,1.1,0z"/><text class="st6"><tspan y="19.1" x="22">14 kt</tspan></text></g></g><g transform="translate(153.04,169.5)"><path fill="#c9c9c9" id="shape117" transform="translate(0,0.92)" d="M1.5,0L100.1,0C101,0,101.7,.5,101.7,1.1L101.7,29.9C101.7,30.6,101,31.1,100.1,31.1L1.5,31.1C.7,31.1,0,30.6,0,29.9L0,1.1C0,.5,.7,0,1.5,0z"/><g id="shape118" transform="translate(0,-0.03)"><path fill="#fcfcfc" d="M1.5,0L100.1,0C101,0,101.7,.5,101.7,1.1L101.7,29.9C101.7,30.6,101,31.1,100.1,31.1L1.5,31.1C.7,31.1,0,30.6,0,29.9L0,1.1C0,.5,.7,0,1.5,0z"/><text class="st6"><tspan y="19.1" x="23.4">1021 hPa</tspan></text></g></g><g transform="translate(254.74,169.5)"><path fill="#c9c9c9" id="shape119" transform="translate(0,0.92)" d="M.6,0L38.8,0C39.2,0,39.5,.5,39.5,1.1L39.5,29.9C39.5,30.6,39.2,31.1,38.8,31.1L.6,31.1C.3,31.1,0,30.6,0,29.9L0,1.1C0,.5,.3,0,.6,0z"/><g id="shape120" transform="translate(0,-0.03)"><path fill="#fcfcfc" d="M.6,0L38.8,0C39.2,0,39.5,.5,39.5,1.1L39.5,29.9C39.5,30.6,39.2,31.1,38.8,31.1L.6,31.1C.3,31.1,0,30.6,0,29.9L0,1.1C0,.5,.3,0,.6,0z"/><text class="st6"><tspan y="19.1" x="7.2">47 F</tspan></text></g></g><g transform="translate(26.19,209)"><path fill="#c9c9c9" id="shape121" transform="translate(0,0.66)" d="M3.5,0L224.9,0C226.9,0,228.5,.4,228.5,.8L228.5,21.5C228.5,22,226.9,22.3,224.9,22.3L3.5,22.3C1.5,22.3,0,22,0,21.5L0,.8C0,.4,1.5,0,3.5,0z"/><g id="shape122" transform="translate(0,-0.02)"><path fill="#fcfcfc" d="M3.5,0L224.9,0C226.9,0,228.5,.4,228.5,.8L228.5,21.5C228.5,22,226.9,22.3,224.9,22.3L3.5,22.3C1.5,22.3,0,22,0,21.5L0,.8C0,.4,1.5,0,3.5,0z"/><text class="st6"><tspan y="15" x="4.3">Scattered at 3500 ft AGL</tspan></text></g></g><g transform="translate(26.19,135)"><path fill="#c9c9c9" id="shape123" transform="translate(0,0.8)" d="M2.3,0L148.4,0C149.7,0,150.8,.4,150.8,1L150.8,26.2C150.8,26.7,149.7,27.2,148.4,27.2L2.3,27.2C1,27.2,0,26.7,0,26.2L0,1C0,.4,1,0,2.3,0z"/><g id="shape124" transform="translate(0,-0.03)"><path fill="#fcfcfc" d="M2.3,0L148.4,0C149.7,0,150.8,.4,150.8,1L150.8,26.2C150.8,26.7,149.7,27.2,148.4,27.2L2.3,27.2C1,27.2,0,26.7,0,26.2L0,1C0,.4,1,0,2.3,0z"/><text class="st3"><tspan y="15" x="4.4">Billings Logan Intl</tspan></text></g></g><g transform="translate(177,132)"><path fill="#c9c9c9" id="shape125" transform="translate(0,0.92)" d="M.9,0L61,0C61.5,0,62,.5,62,1.1L62,29.9C62,30.6,61.5,31.1,61,31.1L.9,31.1C.4,31.1,0,30.6,0,29.9L0,1.1C0,.5,.4,0,.9,0z"/><g id="shape126" transform="translate(0,-0.03)"><path fill="#fcfcfc" d="M.9,0L61,0C61.5,0,62,.5,62,1.1L62,29.9C62,30.6,61.5,31.1,61,31.1L.9,31.1C.4,31.1,0,30.6,0,29.9L0,1.1C0,.5,.4,0,.9,0z"/><text class="st3"><tspan y="19.1" x="16">KBIL</tspan></text></g></g><g transform="translate(239,132)"><path fill="#c9c9c9" id="shape127" transform="translate(0,0.92)" d="M.9,0L56,0C56.5,0,56.9,.5,56.9,1.1L56.9,29.9C56.9,30.6,56.5,31.1,56,31.1L.9,31.1C.4,31.1,0,30.6,0,29.9L0,1.1C0,.5,.4,0,.9,0z"/><g id="shape128" transform="translate(0,-0.03)"><path fill="#ffaf00" d="M.9,0L56,0C56.5,0,56.9,.5,56.9,1.1L56.9,29.9C56.9,30.6,56.5,31.1,56,31.1L.9,31.1C.4,31.1,0,30.6,0,29.9L0,1.1C0,.5,.4,0,.9,0z" stroke="#ffaf00"/><text class="st4"><tspan y="19.1" x="10.5">MVFR</tspan></text></g></g><g transform="translate(26.19,237)"><path fill="#c9c9c9" id="shape129" transform="translate(0,0.66)" d="M2.7,0L176.9,0C178.5,0,179.8,.4,179.8,.8L179.8,21.5C179.8,22,178.5,22.3,176.9,22.3L2.7,22.3C1.2,22.3,0,22,0,21.5L0,.8C0,.4,1.2,0,2.7,0z"/><g id="shape130" transform="translate(0,-0.02)"><path fill="#fcfcfc" d="M2.7,0L176.9,0C178.5,0,179.8,.4,179.8,.8L179.8,21.5C179.8,22,178.5,22.3,176.9,22.3L2.7,22.3C1.2,22.3,0,22,0,21.5L0,.8C0,.4,1.2,0,2.7,0z"/><text class="st6"><tspan y="15" x="4.4">Visibility min. 16 km</tspan></text></g></g><g transform="translate(254.74,239)"><path fill="#c9c9c9" id="shape131" transform="translate(0,0.55)" d="M.6,0L35.9,0C36.2,0,36.5,.3,36.5,.7L36.5,17.8C36.5,18.2,36.2,18.5,35.9,18.5L.6,18.5C.2,18.5,0,18.2,0,17.8L0,.7C0,.3,.2,0,.6,0z"/><g id="shape132" transform="translate(0,-0.02)"><path fill="#fcfcfc" d="M.6,0L35.9,0C36.2,0,36.5,.3,36.5,.7L36.5,17.8C36.5,18.2,36.2,18.5,35.9,18.5L.6,18.5C.2,18.5,0,18.2,0,17.8L0,.7C0,.3,.2,0,.6,0z"/><text class="st6"><tspan y="12.7" x="11.2">23</tspan></text></g></g></g><g transform="translate(61,66)"><g><g transform="translate(13.69,58)"><path fill="#e6e6e8" id="shape133" d="M0,0L290.3,0L290.3,20L0,20L0,0z"/><g id="shape134" transform="translate(255.32,4.39)"><text class="st1"><tspan y="3.2" x="10.1">8:2</tspan><tspan y="13.2" x="14.1">8</tspan></text></g><g transform="translate(234.65,6.52)"><path fill="none" id="shape135" transform="translate(-0,0)" d="M18.1,-0L.8,-0C.4,-0,0,.4,0,.9L0,7.3C0,7.8,.4,8.2,.8,8.2L18.1,8.2C18.6,8.2,19,7.8,19,7.3L19,.9C19,.4,18.6,-0,18.1,-0" stroke="#000000"/><path fill="#000000" id="shape136" transform="translate(0.84,0.86)" d="M14.4,6C14.4,6.3,14.3,6.5,14.1,6.5L.4,6.5C.2,6.5,0,6.3,0,6L0,.4C0,.2,.2,0,.4,0L14.1,0C14.3,0,14.4,.2,14.4,.4L14.4,6"/><path fill="#000000" id="shape137" transform="translate(19.39,2.59)" d="M1.3,1.7C1.3,2.4,.7,3,0,3L0,-0C.7,-0,1.3,.6,1.3,1.3" stroke="#000000"/></g><g id="shape138" transform="translate(204.99,6.04)"><text class="st1"><tspan y="6.6" x="12.2">88%</tspan></text></g><path fill="#000000" id="shape139" transform="translate(180.1,5.74)" d="M4.7,7.6L6.6,9.8L8.5,7.6C8.5,7.6,7.5,6.8,6.6,6.8C5.6,6.8,4.7,7.6,4.7,7.6M2.3,5L3.4,6.2C3.4,6.2,4.4,4.9,6.6,4.9C8.8,4.9,9.7,6.2,9.7,6.2L10.8,5C10.8,5,8.8,3.3,6.6,3.3C4.4,3.3,2.3,5,2.3,5M6.6,-0C3,-0,0,2.8,0,2.8L1.1,3.9C1.1,3.9,3.3,1.6,6.6,1.6C9.9,1.6,12.1,3.9,12.1,3.9L13.1,2.8C13.1,2.8,10.2,-0,6.6,-0"/><g transform="translate(198.27,5.54)"><path fill="#000000" id="shape140" transform="translate(12.52,0)" d="M0,0L1.8,0L1.8,10.2L0,10.2L0,0z"/><path fill="#000000" id="shape141" transform="translate(8.35,1.74)" d="M0,0L1.8,0L1.8,8.4L0,8.4L0,0z"/><path fill="#000000" id="shape142" transform="translate(4.17,4.34)" d="M0,0L1.8,0L1.8,5.8L0,5.8L0,0z"/><path fill="#000000" id="shape143" transform="translate(-0,6.51)" d="M0,0L1.8,0L1.8,3.6L0,3.6L0,0z"/></g><path fill="#000000" id="shape144" transform="translate(6.79,3.9)" d="M1.2,0L12.2,0C12.9,0,13.4,.5,13.4,1.2L13.4,8.9C13.4,9.5,12.9,10.1,12.2,10.1L5.5,10.1L2.4,12.2L2.4,10.1L1.2,10.1C.5,10.1,0,9.5,0,8.9L0,1.2C0,.5,.5,0,1.2,0z"/><path fill="#ffffff" id="shape145" transform="translate(9.71,9.57)" d="M.2,-0C.2,-0,1.9,.5,3.8,.5C5.7,.5,7.3,-0,7.3,-0C7.5,-0,7.5,.1,7.5,.2C7.5,.3,7.5,.4,7.3,.4C7.3,.4,5.9,.9,3.8,.9C1.7,.9,.2,.4,.2,.4C.1,.4,0,.3,0,.2C0,.1,.1,-0,.2,-0z" stroke="#ffffff"/><g transform="translate(10.51,6.47)"><path fill="#ffffff" id="shape146" transform="translate(-0,0)" d="M-0,.6C-0,.3,.3,0,.6,0C.9,0,1.2,.3,1.2,.6C1.2,.9,.9,1.2,.6,1.2C.3,1.2,-0,.9,-0,.6z" stroke="#ffffff"/><path fill="#ffffff" id="shape147" transform="translate(4.77,0)" d="M-0,.6C-0,.3,.3,0,.6,0C.9,0,1.2,.3,1.2,.6C1.2,.9,.9,1.2,.6,1.2C.3,1.2,-0,.9,-0,.6z" stroke="#ffffff"/></g><g transform="translate(28,4.2)"><path fill="#000000" id="shape148" transform="translate(-0.06,6.82)" d="M1.6,1.1C1.6,1.1,7.2,-1.4,12.7,1.1C12.7,1.1,14.9,2,14.3,3.7C14.3,3.7,13.9,4.8,13.6,4.8L10.7,4.1C10.7,4.1,10.4,4,10.3,3.6L9.9,2.6C9.9,2.6,9.7,2.1,9.2,2C9.2,2,7.2,1.5,5.2,2C5.2,2,4.5,2.1,4.4,2.6L4.1,3.6C4.1,3.6,4.1,3.9,3.6,4.1L1,4.7C1,4.7,.5,4.9,.4,4.6C.1,3.9,-0.2,2.4,.4,1.8C.4,1.8,1.2,1.3,1.6,1.1z"/><path fill="#000000" id="shape149" transform="translate(2.67,-0)" d="M8.9,.9L4.4,5.6L.9,1.9L0,0L2.7,0L1.8,1L4.4,3.8L8.9,.9z"/></g></g><g><g transform="translate(318.23,107.76)"><path fill="#ffffff" stroke-width="0.5" id="shape150" transform="translate(0.05,120.65)" d="M-0.1,0L2.2,0C3.3,0,4.1,.9,4.1,2.1L4.1,42.9C4.1,44,3.3,45,2.2,45L-0.1,45L-0.1,0z" stroke="#808080"/><path fill="#ffffff" stroke-width="0.5" id="shape151" transform="matrix(-1,0,0,1,5.7,0)" d="M1.8,0L5.6,0L5.6,99.5L1.8,99.5C.8,99.5,-0.1,98.6,-0.1,97.5L-0.1,1.9C-0.1,.8,.8,0,1.8,0z" stroke="#808080"/></g><path fill="#ffffff" stroke-width="0.5" id="shape152" d="M30.2,0L287.8,0C304.5,0,318,13.5,318,30.2L318,611.8C318,628.5,304.5,642,287.8,642L30.2,642C13.5,642,0,628.5,0,611.8L0,30.2C0,13.5,13.5,0,30.2,0zM14,576.3L304,576.3L304,58.2L14,58.2L14,576.3z" stroke="#808080"/><g transform="translate(106.94,25.58)"><path fill="#ffffff" stroke-width="0.5" id="shape153" transform="translate(0,2.06)" d="M3.2,0L12.5,0C14.3,0,15.7,1.4,15.7,3.2C15.7,5,14.3,6.4,12.5,6.4L3.2,6.4C1.4,6.4,0,5,0,3.2C0,1.4,1.4,0,3.2,0z" stroke="#808080"/><path fill="#ffffff" stroke-width="0.5" id="shape154" transform="translate(31.07,2.24)" d="M3,0L32.7,0C34.4,0,35.7,1.4,35.7,3C35.7,4.7,34.4,6.1,32.7,6.1L3,6.1C1.4,6.1,0,4.7,0,3C0,1.4,1.4,0,3,0z" stroke="#808080"/><path fill="#ffffff" stroke-width="0.5" id="shape155" transform="translate(93.57,0)" d="M0,5.3C0,2.4,2.4,0,5.3,0C8.2,0,10.6,2.4,10.6,5.3C10.6,8.2,8.2,10.6,5.3,10.6C2.4,10.6,0,8.2,0,5.3z" stroke="#808080"/></g><g transform="translate(55.23,600.24)"><path fill="#ffffff" stroke-width="0.5" id="shape156" transform="translate(-0,0)" d="M2.5,0L10.7,0C12.1,0,13.2,1.1,13.2,2.5L13.2,10.7C13.2,12.1,12.1,13.2,10.7,13.2L2.5,13.2C1.1,13.2,0,12.1,0,10.7L0,2.5C0,1.1,1.1,0,2.5,0z" stroke="#808080"/><path fill="#ffffff" stroke-width="0.5" id="shape157" transform="translate(100.52,0.36)" d="M0,6.3C0,2.8,2.8,0,6.3,0C9.7,0,12.5,2.8,12.5,6.3C12.5,9.7,9.7,12.5,6.3,12.5C2.8,12.5,0,9.7,0,6.3z" stroke="#808080"/><path fill="#ffffff" stroke-width="0.5" id="shape158" transform="translate(201.8,0.21)" d="M-5.7,6.4L5.7,0L5.7,12.8L-5.7,6.4z" stroke="#808080"/></g></g><g transform="translate(13.69,78)"><path fill="#1bbc9d" id="shape159" d="M0,0L290,0L290,40L0,40L0,0z" stroke="#1bbc9d"/><g transform="translate(265.61,11.08)"><path fill="#ffffff" id="shape160" d="M0,0L3.8,0L3.8,3.9L0,3.9L0,0z" stroke="#7eccb6"/><path fill="#ffffff" id="shape161" transform="translate(0,14.46)" d="M0,0L3.8,0L3.8,3.9L0,3.9L0,0z" stroke="#7eccb6"/><path fill="#ffffff" id="shape162" transform="translate(0,6.99)" d="M0,0L3.8,0L3.8,3.9L0,3.9L0,0z" stroke="#7eccb6"/></g></g><path fill="#ffffff" id="shape163" transform="translate(239,89.5)" d="M8.5,20.8M8.5,19.3zM9.1,7.9L9.1,0L7.9,0L7.9,7.9L0,7.9L0,9.1L7.9,9.1L7.9,17L9.1,17L9.1,9.1L17,9.1L17,7.9L9.1,7.9z" stroke="#7eccb6"/><g id="shape164" transform="translate(59.04,72)"><text class="st2"><tspan y="31.5" x="11">Aviation Weather</tspan></text></g><g transform="translate(22.1,132)"><path fill="#ffffff" id="shape165" d="M273.8,433L273.8,0L0,0L0,433L273.8,433z" stroke="#3498db"/></g><g transform="translate(92.96,169.5)"><path fill="#c9c9c9" id="shape166" transform="translate(0,0.92)" d="M1.1,0L70.8,0C71.5,0,72,.5,72,1.1L72,29.9C72,30.6,71.5,31.1,70.8,31.1L1.1,31.1C.5,31.1,0,30.6,0,29.9L0,1.1C0,.5,.5,0,1.1,0z"/><path fill="#fcfcfc" id="shape167" transform="translate(0,-0.03)" d="M1.1,0L70.8,0C71.5,0,72,.5,72,1.1L72,29.9C72,30.6,71.5,31.1,70.8,31.1L1.1,31.1C.5,31.1,0,30.6,0,29.9L0,1.1C0,.5,.5,0,1.1,0z"/></g></g><g id="shape168" transform="translate(31,140)"><text class="st7"><tspan y="19" x="47">Press + to add </tspan><tspan y="47" x="84">stations</tspan></text></g></g><g id="shape169" transform="translate(139,716)"><text class="st8"><tspan y="11.5" x="20">1. Home Screen - </tspan><tspan y="30.5" x="17">No Stations Added</tspan></text></g><g id="shape170" transform="translate(481.26,718)"><text class="st8"><tspan y="9.5" x="14">2. Home Screen - 1 </tspan><tspan y="28.5" x="33">Station Added</tspan></text></g><g id="shape171" transform="translate(823,718)"><text class="st8"><tspan y="9.5" x="21">3. Weather Detail </tspan><tspan y="28.5" x="58">Screen</tspan></text></g><path fill="#ee7c31" id="shape172" transform="translate(302,581)" d="M0,16.5C0,7.4,7.4,0,16.5,0C25.6,0,33,7.4,33,16.5C33,25.6,25.6,33,16.5,33C7.4,33,0,25.6,0,16.5z" stroke="#ee7c31"/><g id="shape173" transform="translate(296,571.5)"><text class="st9"><tspan y="33" x="15">+</tspan></text></g><path fill="#3498db" stroke-width="0.333333" id="shape174" transform="translate(432,241)" d="M17.5,6.3L4.5,11.8L11.9,11.8L11.9,19.2L17.5,6.3zM0,12C0,5.4,5.4,0,12,0C18.6,0,24,5.4,24,12C24,18.6,18.6,24,12,24C5.4,24,0,18.6,0,12zM12,22.6C17.8,22.6,22.6,17.8,22.6,12C22.6,6.2,17.8,1.4,12,1.4C6.2,1.4,1.4,6.2,1.4,12C1.4,17.8,6.2,22.6,12,22.6zM19.6,7.5z" stroke="#3498db"/><g transform="translate(665,274)"><path fill="#ffffff" id="shape175" d="M0,10.5C0,4.7,4.7,0,10.5,0C16.3,0,21,4.7,21,10.5C21,16.3,16.3,21,10.5,21C4.7,21,0,16.3,0,10.5z" stroke="#eeeeee"/><g id="shape176" transform="translate(3.56,3.56)"><path fill="#007835" d="M0,6.9C0,3.1,3.1,-0,6.9,-0C10.8,-0,13.9,3.1,13.9,6.9C13.9,10.8,10.8,13.9,6.9,13.9C3.1,13.9,0,10.8,0,6.9z" filter="url(#filter1)" fill-opacity="0.64"/><path fill="#97e42d" d="M0,6.9C0,3.1,3.1,-0,6.9,-0C10.8,-0,13.9,3.1,13.9,6.9C13.9,10.8,10.8,13.9,6.9,13.9C3.1,13.9,0,10.8,0,6.9z" stroke="#98e72d"/></g></g><path fill="#1bbc9d" id="shape177" transform="matrix(0.71,0.71,-0.71,0.71,222,307.4)" d="M79.2,87.6C79.4,85.6,81.9,86.3,81.9,86.3L101.5,90L142.1,104.5C142.1,97.3,140.9,96.6,139.2,95.4L81.2,56.6C81.2,56.6,79.7,38.8,79.7,23.1C79.7,15.9,75.9,0,71.1,0C66.2,0,62.5,16.1,62.5,23.1C62.5,38,60.9,56.6,60.9,56.6L3,95.4C.7,96.8,0,97.6,0,104.5L40.6,90L60.3,86.3C60.3,86.3,62.8,85.6,62.9,87.6C63,89.7,62.5,108.1,64.8,117.9C65,119.2,64,119.3,63.2,120.1L46.8,129.8C46.2,130.3,46,131.9,46,131.9L45.7,137.4L67.2,132.7L71,142.1L74.9,132.7L96.4,137.4L96.1,131.9C96.1,131.9,95.9,130.3,95.3,129.8L78.9,120.1C78.2,119.3,77.1,119.2,77.4,117.9C79.5,108.1,79.1,89.7,79.2,87.6z" stroke="#1bbc9d"/><path fill="#1bbc9d" id="shape178" transform="translate(148.14,302)" d="M19,27.8C14.1,27.8,10.2,23.9,10.2,19C10.2,14.1,14.1,10.2,19,10.2C23.9,10.2,27.8,14.1,27.8,19C27.8,23.9,23.9,27.8,19,27.8zM19,12.1C15.2,12.1,12.1,15.2,12.1,19C12.1,22.8,15.2,25.9,19,25.9C22.8,25.9,25.9,22.8,25.9,19C25.9,15.2,22.8,12.1,19,12.1zM30.7,5.6L27.3,9C26.8,9.5,26.8,10.2,27.3,10.7C27.8,11.2,28.5,11.2,29,10.7L32.4,7.3C32.9,6.8,32.9,6,32.4,5.6C32,5.1,31.2,5.1,30.7,5.6zM9,27.3L5.6,30.7C5.1,31.2,5.1,32,5.6,32.4C6,32.9,6.8,32.9,7.3,32.4L10.7,29C11.2,28.5,11.2,27.8,10.7,27.3C10.2,26.8,9.5,26.8,9,27.3zM17.8,1.2L17.8,6C17.8,6.7,18.3,7.3,19,7.3C19.7,7.3,20.2,6.7,20.2,6L20.2,1.2C20.2,.5,19.7,0,19,0C18.3,0,17.8,.5,17.8,1.2zM17.8,32L17.8,36.8C17.8,37.5,18.3,38,19,38C19.7,38,20.2,37.5,20.2,36.8L20.2,32C20.2,31.3,19.7,30.7,19,30.7C18.3,30.7,17.8,31.3,17.8,32zM6,17.8L1.2,17.8C.5,17.8,0,18.3,0,19C0,19.7,.5,20.2,1.2,20.2L6,20.2C6.7,20.2,7.3,19.7,7.3,19C7.3,18.3,6.7,17.8,6,17.8zM36.8,17.8L32,17.8C31.3,17.8,30.7,18.3,30.7,19C30.7,19.7,31.3,20.2,32,20.2L36.8,20.2C37.5,20.2,38,19.7,38,19C38,18.3,37.5,17.8,36.8,17.8zM5.6,7.3L9,10.7C9.5,11.2,10.2,11.2,10.7,10.7C11.2,10.2,11.2,9.5,10.7,9L7.3,5.6C6.8,5.1,6,5.1,5.6,5.6C5.1,6,5.1,6.8,5.6,7.3zM27.3,29L30.7,32.4C31.2,32.9,32,32.9,32.4,32.4C32.9,32,32.9,31.2,32.4,30.7L29,27.3C28.5,26.8,27.8,26.8,27.3,27.3C26.8,27.8,26.8,28.5,27.3,29z" stroke="#1bbc9d"/></g><g id="page2" transform="translate(5,804)"><rect width="1123" fill="#ffffff" y="0" height="794" stroke="#808080" x="0"/><g transform="translate(63,66)"><g><g><g transform="translate(13.69,58)"><path fill="#e6e6e8" id="shape179" d="M0,0L290.3,0L290.3,20L0,20L0,0z"/><g id="shape180" transform="translate(255.32,4.39)"><text class="st1"><tspan y="3.2" x="10.1">8:2</tspan><tspan y="13.2" x="14.1">8</tspan></text></g><g transform="translate(234.65,6.52)"><path fill="none" id="shape181" transform="translate(-0,0)" d="M18.1,-0L.8,-0C.4,-0,0,.4,0,.9L0,7.3C0,7.8,.4,8.2,.8,8.2L18.1,8.2C18.6,8.2,19,7.8,19,7.3L19,.9C19,.4,18.6,-0,18.1,-0" stroke="#000000"/><path fill="#000000" id="shape182" transform="translate(0.84,0.86)" d="M14.4,6C14.4,6.3,14.3,6.5,14.1,6.5L.4,6.5C.2,6.5,0,6.3,0,6L0,.4C0,.2,.2,0,.4,0L14.1,0C14.3,0,14.4,.2,14.4,.4L14.4,6"/><path fill="#000000" id="shape183" transform="translate(19.39,2.59)" d="M1.3,1.7C1.3,2.4,.7,3,0,3L0,-0C.7,-0,1.3,.6,1.3,1.3" stroke="#000000"/></g><g id="shape184" transform="translate(204.99,6.04)"><text class="st1"><tspan y="6.6" x="12.2">88%</tspan></text></g><path fill="#000000" id="shape185" transform="translate(180.1,5.74)" d="M4.7,7.6L6.6,9.8L8.5,7.6C8.5,7.6,7.5,6.8,6.6,6.8C5.6,6.8,4.7,7.6,4.7,7.6M2.3,5L3.4,6.2C3.4,6.2,4.4,4.9,6.6,4.9C8.8,4.9,9.7,6.2,9.7,6.2L10.8,5C10.8,5,8.8,3.3,6.6,3.3C4.4,3.3,2.3,5,2.3,5M6.6,-0C3,-0,0,2.8,0,2.8L1.1,3.9C1.1,3.9,3.3,1.6,6.6,1.6C9.9,1.6,12.1,3.9,12.1,3.9L13.1,2.8C13.1,2.8,10.2,-0,6.6,-0"/><g transform="translate(198.27,5.54)"><path fill="#000000" id="shape186" transform="translate(12.52,0)" d="M0,0L1.8,0L1.8,10.2L0,10.2L0,0z"/><path fill="#000000" id="shape187" transform="translate(8.35,1.74)" d="M0,0L1.8,0L1.8,8.4L0,8.4L0,0z"/><path fill="#000000" id="shape188" transform="translate(4.17,4.34)" d="M0,0L1.8,0L1.8,5.8L0,5.8L0,0z"/><path fill="#000000" id="shape189" transform="translate(-0,6.51)" d="M0,0L1.8,0L1.8,3.6L0,3.6L0,0z"/></g><path fill="#000000" id="shape190" transform="translate(6.79,3.9)" d="M1.2,0L12.2,0C12.9,0,13.4,.5,13.4,1.2L13.4,8.9C13.4,9.5,12.9,10.1,12.2,10.1L5.5,10.1L2.4,12.2L2.4,10.1L1.2,10.1C.5,10.1,0,9.5,0,8.9L0,1.2C0,.5,.5,0,1.2,0z"/><path fill="#ffffff" id="shape191" transform="translate(9.71,9.57)" d="M.2,-0C.2,-0,1.9,.5,3.8,.5C5.7,.5,7.3,-0,7.3,-0C7.5,-0,7.5,.1,7.5,.2C7.5,.3,7.5,.4,7.3,.4C7.3,.4,5.9,.9,3.8,.9C1.7,.9,.2,.4,.2,.4C.1,.4,0,.3,0,.2C0,.1,.1,-0,.2,-0z" stroke="#ffffff"/><g transform="translate(10.51,6.47)"><path fill="#ffffff" id="shape192" transform="translate(-0,0)" d="M-0,.6C-0,.3,.3,0,.6,0C.9,0,1.2,.3,1.2,.6C1.2,.9,.9,1.2,.6,1.2C.3,1.2,-0,.9,-0,.6z" stroke="#ffffff"/><path fill="#ffffff" id="shape193" transform="translate(4.77,0)" d="M-0,.6C-0,.3,.3,0,.6,0C.9,0,1.2,.3,1.2,.6C1.2,.9,.9,1.2,.6,1.2C.3,1.2,-0,.9,-0,.6z" stroke="#ffffff"/></g><g transform="translate(28,4.2)"><path fill="#000000" id="shape194" transform="translate(-0.06,6.82)" d="M1.6,1.1C1.6,1.1,7.2,-1.4,12.7,1.1C12.7,1.1,14.9,2,14.3,3.7C14.3,3.7,13.9,4.8,13.6,4.8L10.7,4.1C10.7,4.1,10.4,4,10.3,3.6L9.9,2.6C9.9,2.6,9.7,2.1,9.2,2C9.2,2,7.2,1.5,5.2,2C5.2,2,4.5,2.1,4.4,2.6L4.1,3.6C4.1,3.6,4.1,3.9,3.6,4.1L1,4.7C1,4.7,.5,4.9,.4,4.6C.1,3.9,-0.2,2.4,.4,1.8C.4,1.8,1.2,1.3,1.6,1.1z"/><path fill="#000000" id="shape195" transform="translate(2.67,-0)" d="M8.9,.9L4.4,5.6L.9,1.9L0,0L2.7,0L1.8,1L4.4,3.8L8.9,.9z"/></g></g><g><g transform="translate(318.23,107.76)"><path fill="#ffffff" stroke-width="0.5" id="shape196" transform="translate(0.05,120.65)" d="M-0.1,0L2.2,0C3.3,0,4.1,.9,4.1,2.1L4.1,42.9C4.1,44,3.3,45,2.2,45L-0.1,45L-0.1,0z" stroke="#808080"/><path fill="#ffffff" stroke-width="0.5" id="shape197" transform="matrix(-1,0,0,1,5.7,0)" d="M1.8,0L5.6,0L5.6,99.5L1.8,99.5C.8,99.5,-0.1,98.6,-0.1,97.5L-0.1,1.9C-0.1,.8,.8,0,1.8,0z" stroke="#808080"/></g><path fill="#ffffff" stroke-width="0.5" id="shape198" d="M30.2,0L287.8,0C304.5,0,318,13.5,318,30.2L318,611.8C318,628.5,304.5,642,287.8,642L30.2,642C13.5,642,0,628.5,0,611.8L0,30.2C0,13.5,13.5,0,30.2,0zM14,576.3L304,576.3L304,58.2L14,58.2L14,576.3z" stroke="#808080"/><g transform="translate(106.94,25.58)"><path fill="#ffffff" stroke-width="0.5" id="shape199" transform="translate(0,2.06)" d="M3.2,0L12.5,0C14.3,0,15.7,1.4,15.7,3.2C15.7,5,14.3,6.4,12.5,6.4L3.2,6.4C1.4,6.4,0,5,0,3.2C0,1.4,1.4,0,3.2,0z" stroke="#808080"/><path fill="#ffffff" stroke-width="0.5" id="shape200" transform="translate(31.07,2.24)" d="M3,0L32.7,0C34.4,0,35.7,1.4,35.7,3C35.7,4.7,34.4,6.1,32.7,6.1L3,6.1C1.4,6.1,0,4.7,0,3C0,1.4,1.4,0,3,0z" stroke="#808080"/><path fill="#ffffff" stroke-width="0.5" id="shape201" transform="translate(93.57,0)" d="M0,5.3C0,2.4,2.4,0,5.3,0C8.2,0,10.6,2.4,10.6,5.3C10.6,8.2,8.2,10.6,5.3,10.6C2.4,10.6,0,8.2,0,5.3z" stroke="#808080"/></g><g transform="translate(55.23,600.24)"><path fill="#ffffff" stroke-width="0.5" id="shape202" transform="translate(-0,0)" d="M2.5,0L10.7,0C12.1,0,13.2,1.1,13.2,2.5L13.2,10.7C13.2,12.1,12.1,13.2,10.7,13.2L2.5,13.2C1.1,13.2,0,12.1,0,10.7L0,2.5C0,1.1,1.1,0,2.5,0z" stroke="#808080"/><path fill="#ffffff" stroke-width="0.5" id="shape203" transform="translate(100.52,0.36)" d="M0,6.3C0,2.8,2.8,0,6.3,0C9.7,0,12.5,2.8,12.5,6.3C12.5,9.7,9.7,12.5,6.3,12.5C2.8,12.5,0,9.7,0,6.3z" stroke="#808080"/><path fill="#ffffff" stroke-width="0.5" id="shape204" transform="translate(201.8,0.21)" d="M-5.7,6.4L5.7,0L5.7,12.8L-5.7,6.4z" stroke="#808080"/></g></g><g transform="translate(13.69,78)"><path fill="#1bbc9d" id="shape205" d="M0,0L290,0L290,40L0,40L0,0z" stroke="#1bbc9d"/><g transform="translate(265.61,11.08)"><path fill="#ffffff" id="shape206" d="M0,0L3.8,0L3.8,3.9L0,3.9L0,0z" stroke="#7eccb6"/><path fill="#ffffff" id="shape207" transform="translate(0,14.46)" d="M0,0L3.8,0L3.8,3.9L0,3.9L0,0z" stroke="#7eccb6"/><path fill="#ffffff" id="shape208" transform="translate(0,6.99)" d="M0,0L3.8,0L3.8,3.9L0,3.9L0,0z" stroke="#7eccb6"/></g></g><path fill="#ffffff" id="shape209" transform="translate(239,89.5)" d="M8.5,20.8M8.5,19.3zM9.1,7.9L9.1,0L7.9,0L7.9,7.9L0,7.9L0,9.1L7.9,9.1L7.9,17L9.1,17L9.1,9.1L17,9.1L17,7.9L9.1,7.9z" stroke="#7eccb6"/><g transform="translate(22.1,132)"><path fill="#ffffff" id="shape210" d="M273.8,433L273.8,0L0,0L0,433L273.8,433z" stroke="#3498db"/></g></g></g></g><g transform="translate(118,143)"><path fill="#1bbc9d" id="shape211" transform="translate(0,2.47)" d="M0,0L241,0L241,28.1L0,28.1L0,0z" stroke="#1bbc9d"/><path fill="#1bbc9d" id="shape212" transform="translate(15.57,5.73)" d="M207.3,21.5C208.7,21.5,209.9,20.4,209.9,19L209.9,2.6C209.9,1.2,208.7,0,207.3,0L2.6,0C1.2,0,0,1.2,0,2.6L0,19C0,20.4,1.2,21.5,2.6,21.5L207.3,21.5z" stroke="#1bbc9d"/><path fill="#1bbc9d" id="shape213" transform="translate(199.88,10.57)" d="M14.1,11.2L8.8,8.3C7.9,9,6.7,9.4,5.4,9.4C2.4,9.4,0,7.3,0,4.7C0,2.1,2.4,0,5.4,0C8.3,0,10.7,2.1,10.7,4.7C10.7,5.8,10.3,6.8,9.6,7.6L14.1,11.2M.6,4.7C.6,7,2.7,8.9,5.4,8.9C8,8.9,10.2,7,10.2,4.7C10.2,2.4,8,.5,5.4,.5C2.7,.5,.6,2.4,.6,4.7" stroke="#1bbc9d"/><g id="shape214" transform="translate(22.65,8.5)"><text class="st4"><tspan y="11.5" x="5.2">Search</tspan></text></g></g><path fill="#ffffff" id="shape215" transform="translate(85,155.01)" d="M8.4,0L2.4,4.9L8.4,10L5.9,10L0,5L5.9,0L8.4,0z" stroke="#7eccb6"/><path fill="#ffffff" id="shape216" transform="translate(317,151.24)" d="M17,15.7L16,16.5L10.6,11.5C9.5,12.5,8.1,13.1,6.5,13.1C2.9,13.1,0,10.2,0,6.5C0,2.9,2.9,0,6.5,0C10,0,12.9,2.9,12.9,6.5C12.9,8.1,12.4,9.4,11.6,10.5L17,15.7M.7,6.5C.7,9.8,3.3,12.4,6.5,12.4C9.7,12.4,12.2,9.8,12.2,6.5C12.2,3.3,9.7,.7,6.5,.7C3.3,.7,.7,3.3,.7,6.5" stroke="#7eccb6"/><g transform="translate(94,203)"><path fill="#ffffff" id="shape217" d="M256,90L256,0L0,0L0,90L256,90z" stroke="#3498db"/></g><g id="shape218" transform="translate(104,213)"><text class="st10"><tspan y="18" x="8">Billings Logan Intl</tspan></text></g><g id="shape219" transform="translate(267,213)"><text class="st10"><tspan y="17.5" x="23">KBIL</tspan></text></g><g id="shape220" transform="translate(104,242)"><text class="st3"><tspan y="15" x="8">Billings MT</tspan></text></g><g id="shape221" transform="translate(104,262)"><text class="st3"><tspan y="15" x="8.5">USA</tspan></text></g><g id="shape222" transform="translate(139,709)"><text class="st8"><tspan y="11.5" x="33">4. Add Station </tspan><tspan y="30.5" x="58">Screen</tspan></text></g><g transform="translate(402.26,66)"><g transform="translate(13.69,58)"><path fill="#e6e6e8" id="shape223" d="M0,0L290.3,0L290.3,20L0,20L0,0z"/><g id="shape224" transform="translate(255.32,4.39)"><text class="st1"><tspan y="3.2" x="10.1">8:2</tspan><tspan y="13.2" x="14.1">8</tspan></text></g><g transform="translate(234.65,6.52)"><path fill="none" id="shape225" transform="translate(-0,0)" d="M18.1,-0L.8,-0C.4,-0,0,.4,0,.9L0,7.3C0,7.8,.4,8.2,.8,8.2L18.1,8.2C18.6,8.2,19,7.8,19,7.3L19,.9C19,.4,18.6,-0,18.1,-0" stroke="#000000"/><path fill="#000000" id="shape226" transform="translate(0.84,0.86)" d="M14.4,6C14.4,6.3,14.3,6.5,14.1,6.5L.4,6.5C.2,6.5,0,6.3,0,6L0,.4C0,.2,.2,0,.4,0L14.1,0C14.3,0,14.4,.2,14.4,.4L14.4,6"/><path fill="#000000" id="shape227" transform="translate(19.39,2.59)" d="M1.3,1.7C1.3,2.4,.7,3,0,3L0,-0C.7,-0,1.3,.6,1.3,1.3" stroke="#000000"/></g><g id="shape228" transform="translate(204.99,6.04)"><text class="st1"><tspan y="6.6" x="12.2">88%</tspan></text></g><path fill="#000000" id="shape229" transform="translate(180.1,5.74)" d="M4.7,7.6L6.6,9.8L8.5,7.6C8.5,7.6,7.5,6.8,6.6,6.8C5.6,6.8,4.7,7.6,4.7,7.6M2.3,5L3.4,6.2C3.4,6.2,4.4,4.9,6.6,4.9C8.8,4.9,9.7,6.2,9.7,6.2L10.8,5C10.8,5,8.8,3.3,6.6,3.3C4.4,3.3,2.3,5,2.3,5M6.6,-0C3,-0,0,2.8,0,2.8L1.1,3.9C1.1,3.9,3.3,1.6,6.6,1.6C9.9,1.6,12.1,3.9,12.1,3.9L13.1,2.8C13.1,2.8,10.2,-0,6.6,-0"/><g transform="translate(198.27,5.54)"><path fill="#000000" id="shape230" transform="translate(12.52,0)" d="M0,0L1.8,0L1.8,10.2L0,10.2L0,0z"/><path fill="#000000" id="shape231" transform="translate(8.35,1.74)" d="M0,0L1.8,0L1.8,8.4L0,8.4L0,0z"/><path fill="#000000" id="shape232" transform="translate(4.17,4.34)" d="M0,0L1.8,0L1.8,5.8L0,5.8L0,0z"/><path fill="#000000" id="shape233" transform="translate(-0,6.51)" d="M0,0L1.8,0L1.8,3.6L0,3.6L0,0z"/></g><path fill="#000000" id="shape234" transform="translate(6.79,3.9)" d="M1.2,0L12.2,0C12.9,0,13.4,.5,13.4,1.2L13.4,8.9C13.4,9.5,12.9,10.1,12.2,10.1L5.5,10.1L2.4,12.2L2.4,10.1L1.2,10.1C.5,10.1,0,9.5,0,8.9L0,1.2C0,.5,.5,0,1.2,0z"/><path fill="#ffffff" id="shape235" transform="translate(9.71,9.57)" d="M.2,-0C.2,-0,1.9,.5,3.8,.5C5.7,.5,7.3,-0,7.3,-0C7.5,-0,7.5,.1,7.5,.2C7.5,.3,7.5,.4,7.3,.4C7.3,.4,5.9,.9,3.8,.9C1.7,.9,.2,.4,.2,.4C.1,.4,0,.3,0,.2C0,.1,.1,-0,.2,-0z" stroke="#ffffff"/><g transform="translate(10.51,6.47)"><path fill="#ffffff" id="shape236" transform="translate(-0,0)" d="M-0,.6C-0,.3,.3,0,.6,0C.9,0,1.2,.3,1.2,.6C1.2,.9,.9,1.2,.6,1.2C.3,1.2,-0,.9,-0,.6z" stroke="#ffffff"/><path fill="#ffffff" id="shape237" transform="translate(4.77,0)" d="M-0,.6C-0,.3,.3,0,.6,0C.9,0,1.2,.3,1.2,.6C1.2,.9,.9,1.2,.6,1.2C.3,1.2,-0,.9,-0,.6z" stroke="#ffffff"/></g><g transform="translate(28,4.2)"><path fill="#000000" id="shape238" transform="translate(-0.06,6.82)" d="M1.6,1.1C1.6,1.1,7.2,-1.4,12.7,1.1C12.7,1.1,14.9,2,14.3,3.7C14.3,3.7,13.9,4.8,13.6,4.8L10.7,4.1C10.7,4.1,10.4,4,10.3,3.6L9.9,2.6C9.9,2.6,9.7,2.1,9.2,2C9.2,2,7.2,1.5,5.2,2C5.2,2,4.5,2.1,4.4,2.6L4.1,3.6C4.1,3.6,4.1,3.9,3.6,4.1L1,4.7C1,4.7,.5,4.9,.4,4.6C.1,3.9,-0.2,2.4,.4,1.8C.4,1.8,1.2,1.3,1.6,1.1z"/><path fill="#000000" id="shape239" transform="translate(2.67,-0)" d="M8.9,.9L4.4,5.6L.9,1.9L0,0L2.7,0L1.8,1L4.4,3.8L8.9,.9z"/></g></g><g><g transform="translate(318.23,107.76)"><path fill="#ffffff" stroke-width="0.5" id="shape240" transform="translate(0.05,120.65)" d="M-0.1,0L2.2,0C3.3,0,4.1,.9,4.1,2.1L4.1,42.9C4.1,44,3.3,45,2.2,45L-0.1,45L-0.1,0z" stroke="#808080"/><path fill="#ffffff" stroke-width="0.5" id="shape241" transform="matrix(-1,0,0,1,5.7,0)" d="M1.8,0L5.6,0L5.6,99.5L1.8,99.5C.8,99.5,-0.1,98.6,-0.1,97.5L-0.1,1.9C-0.1,.8,.8,0,1.8,0z" stroke="#808080"/></g><path fill="#ffffff" stroke-width="0.5" id="shape242" d="M30.2,0L287.8,0C304.5,0,318,13.5,318,30.2L318,611.8C318,628.5,304.5,642,287.8,642L30.2,642C13.5,642,0,628.5,0,611.8L0,30.2C0,13.5,13.5,0,30.2,0zM14,576.3L304,576.3L304,58.2L14,58.2L14,576.3z" stroke="#808080"/><g transform="translate(106.94,25.58)"><path fill="#ffffff" stroke-width="0.5" id="shape243" transform="translate(0,2.06)" d="M3.2,0L12.5,0C14.3,0,15.7,1.4,15.7,3.2C15.7,5,14.3,6.4,12.5,6.4L3.2,6.4C1.4,6.4,0,5,0,3.2C0,1.4,1.4,0,3.2,0z" stroke="#808080"/><path fill="#ffffff" stroke-width="0.5" id="shape244" transform="translate(31.07,2.24)" d="M3,0L32.7,0C34.4,0,35.7,1.4,35.7,3C35.7,4.7,34.4,6.1,32.7,6.1L3,6.1C1.4,6.1,0,4.7,0,3C0,1.4,1.4,0,3,0z" stroke="#808080"/><path fill="#ffffff" stroke-width="0.5" id="shape245" transform="translate(93.57,0)" d="M0,5.3C0,2.4,2.4,0,5.3,0C8.2,0,10.6,2.4,10.6,5.3C10.6,8.2,8.2,10.6,5.3,10.6C2.4,10.6,0,8.2,0,5.3z" stroke="#808080"/></g><g transform="translate(55.23,600.24)"><path fill="#ffffff" stroke-width="0.5" id="shape246" transform="translate(-0,0)" d="M2.5,0L10.7,0C12.1,0,13.2,1.1,13.2,2.5L13.2,10.7C13.2,12.1,12.1,13.2,10.7,13.2L2.5,13.2C1.1,13.2,0,12.1,0,10.7L0,2.5C0,1.1,1.1,0,2.5,0z" stroke="#808080"/><path fill="#ffffff" stroke-width="0.5" id="shape247" transform="translate(100.52,0.36)" d="M0,6.3C0,2.8,2.8,0,6.3,0C9.7,0,12.5,2.8,12.5,6.3C12.5,9.7,9.7,12.5,6.3,12.5C2.8,12.5,0,9.7,0,6.3z" stroke="#808080"/><path fill="#ffffff" stroke-width="0.5" id="shape248" transform="translate(201.8,0.21)" d="M-5.7,6.4L5.7,0L5.7,12.8L-5.7,6.4z" stroke="#808080"/></g></g><g transform="translate(13.69,78)"><path fill="#1bbc9d" id="shape249" d="M0,0L290,0L290,40L0,40L0,0z" stroke="#1bbc9d"/><path fill="#ffffff" id="shape250" transform="translate(9.59,15.01)" d="M5.5,0L1.6,4.9L5.5,10L3.9,10L0,5L3.9,0L5.5,0z" stroke="#7eccb6"/><g transform="translate(265.61,11.08)"><path fill="#ffffff" id="shape251" d="M0,0L3.8,0L3.8,3.9L0,3.9L0,0z" stroke="#7eccb6"/><path fill="#ffffff" id="shape252" transform="translate(0,14.46)" d="M0,0L3.8,0L3.8,3.9L0,3.9L0,0z" stroke="#7eccb6"/><path fill="#ffffff" id="shape253" transform="translate(0,6.99)" d="M0,0L3.8,0L3.8,3.9L0,3.9L0,0z" stroke="#7eccb6"/></g></g><path fill="#ffffff" id="shape254" transform="translate(239,89.5)" d="M8.5,20.8M8.5,19.3zM9.1,7.9L9.1,0L7.9,0L7.9,7.9L0,7.9L0,9.1L7.9,9.1L7.9,17L9.1,17L9.1,9.1L17,9.1L17,7.9L9.1,7.9z" stroke="#7eccb6"/><g id="shape255" transform="translate(59.04,72)"><text class="st2"><tspan y="31.5" x="49">Settings</tspan></text></g></g><g id="shape256" transform="translate(481.26,718)"><text class="st8"><tspan y="19" x="18">5. Settings Screen</tspan></text></g><g transform="translate(427.48,187.52)"><path fill="#eeeeee" id="shape257" d="M1.9,0L267,0C268.1,0,269,.4,269,1L269,127C269,127.6,268.1,128,267,128L1.9,128C.9,128,0,127.6,0,127L0,1C0,.4,.9,0,1.9,0z" stroke="#eeeeee"/><g transform="translate(228.71,14.48)"><path fill="#ffffff" id="shape258" d="M0,9.5C0,4.2,4.8,0,10.6,0C16.5,0,21.3,4.2,21.3,9.5C21.3,14.7,16.5,19,10.6,19C4.8,19,0,14.7,0,9.5z" stroke="#dcdcdd"/><g id="shape259" transform="translate(3.61,3.22)"><path fill="#007835" d="M0,6.3C0,2.8,3.2,-0,7,-0C10.9,-0,14.1,2.8,14.1,6.3C14.1,9.7,10.9,12.5,7,12.5C3.2,12.5,0,9.7,0,6.3z" filter="url(#filter1)" fill-opacity="0.64"/><path fill="#97e42d" d="M0,6.3C0,2.8,3.2,-0,7,-0C10.9,-0,14.1,2.8,14.1,6.3C14.1,9.7,10.9,12.5,7,12.5C3.2,12.5,0,9.7,0,6.3z" stroke="#dcdcdd"/></g></g><g id="shape260" transform="translate(18.9,13.48)"><text class="st6"><tspan y="15.5" x="8.1">Display Wind in MPH</tspan></text></g></g><g transform="translate(435.26,192.48)"><path fill="none" id="shape261" transform="translate(0,-0)" d="M0,0L251,0" stroke="#b4b5b5"/><path fill="none" id="shape262" transform="translate(0,40.46)" d="M0,0L251,0" stroke="#b4b5b5"/><path fill="none" id="shape263" transform="translate(0,81.4)" d="M0,0L251,0" stroke="#b4b5b5"/><path fill="none" id="shape264" transform="translate(0,122.1)" d="M0,0L251,0" stroke="#b4b5b5"/></g><g transform="translate(656.87,241)"><path fill="#ffffff" id="shape265" d="M0,9.5C0,4.2,4.5,0,10,0C15.5,0,19.9,4.2,19.9,9.5C19.9,14.7,15.5,19,10,19C4.5,19,0,14.7,0,9.5z" stroke="#dcdcdd"/><g id="shape266" transform="translate(3.38,3.22)"><path fill="#007835" d="M0,6.3C0,2.8,3,-0,6.6,-0C10.2,-0,13.2,2.8,13.2,6.3C13.2,9.7,10.2,12.5,6.6,12.5C3,12.5,0,9.7,0,6.3z" filter="url(#filter1)" fill-opacity="0.64"/><path fill="#97e42d" d="M0,6.3C0,2.8,3,-0,6.6,-0C10.2,-0,13.2,2.8,13.2,6.3C13.2,9.7,10.2,12.5,6.6,12.5C3,12.5,0,9.7,0,6.3z" stroke="#dcdcdd"/></g></g><g transform="translate(656.87,282)"><path fill="#ffffff" id="shape267" d="M0,9.5C0,4.2,4.5,0,10,0C15.5,0,19.9,4.2,19.9,9.5C19.9,14.7,15.5,19,10,19C4.5,19,0,14.7,0,9.5z" stroke="#dcdcdd"/><g id="shape268" transform="translate(3.38,3.22)"><path fill="#007835" d="M0,6.3C0,2.8,3,-0,6.6,-0C10.2,-0,13.2,2.8,13.2,6.3C13.2,9.7,10.2,12.5,6.6,12.5C3,12.5,0,9.7,0,6.3z" filter="url(#filter1)" fill-opacity="0.64"/><path fill="#97e42d" d="M0,6.3C0,2.8,3,-0,6.6,-0C10.2,-0,13.2,2.8,13.2,6.3C13.2,9.7,10.2,12.5,6.6,12.5C3,12.5,0,9.7,0,6.3z" stroke="#dcdcdd"/></g></g><g id="shape269" transform="translate(451.94,242)"><text class="st6"><tspan y="15.5" x="8">Display Temp in Ferenhiet</tspan></text></g><g id="shape270" transform="translate(451.94,283)"><text class="st6"><tspan y="15.5" x="8">Display Visibility in US Miles</tspan></text></g><path fill="#ffffff" id="shape271" transform="translate(721,313.19)" d="M0,4.8C0,2.1,2.1,0,4.8,0C7.4,0,9.5,2.1,9.5,4.8C9.5,7.4,7.4,9.6,4.8,9.6C2.1,9.6,0,7.4,0,4.8z" stroke="#717070"/><g transform="translate(244.23,263)"><g transform="translate(51.54,5)"><path fill="#01e366" id="shape272" transform="translate(-0.03,0)" d="M6.7,0L24.2,0C27.9,0,30.9,3,30.9,6.7L30.9,9.2C30.9,13,27.9,16,24.2,16L6.7,16C3,16,0,13,0,9.2L0,6.7C0,3,3,0,6.7,0z" stroke="#01e366"/><g id="shape273" transform="translate(15.98,0.27)"><path fill="#007835" d="M0,7.7C0,3.4,3.5,-0,7.7,-0C12,-0,15.5,3.4,15.5,7.7C15.5,12,12,15.4,7.7,15.4C3.5,15.4,0,12,0,7.7z" filter="url(#filter1)" fill-opacity="0.64"/><path fill="#ffffff" d="M0,7.7C0,3.4,3.5,-0,7.7,-0C12,-0,15.5,3.4,15.5,7.7C15.5,12,12,15.4,7.7,15.4C3.5,15.4,0,12,0,7.7z" stroke="#01e366"/></g></g><g id="shape274"><text class="st6"><tspan y="15" x="8">Track</tspan></text></g></g></g></svg>