<svg xmlns:xlink="http://www.w3.org/1999/xlink" width="412" height="730" xmlns="http://www.w3.org/2000/svg" xmlns:ev="http://www.w3.org/2001/xml-events" viewBox="0 0 412 730"><style type="text/css"><![CDATA[
.st4 {fill:#000000;font-family:Arial;font-size:10pt}
.st2 {fill:#1f6391;font-family:Arial;font-size:6pt}
.st1 {fill:#ffffff;font-family:Arial Black;font-size:10pt}
.st3 {fill:#ffffff;font-family:Arial;font-size:14pt}
]]></style><defs><filter id="filter1"><feGaussianBlur stdDeviation="1"/></filter></defs><g id="page1" transform="translate(5,5)"><rect width="402" fill="#ffffff" y="0" height="720" stroke="#808080" x="0"/><g transform="translate(132.96,324.51)"><g id="shape1" transform="translate(0,47.98)"><text class="st1"><tspan y="22.5" x="22">SAMPLE TEXT</tspan></text></g><g transform="translate(28.15,0)"><g transform="translate(12.55,15.62)"><path fill="#ffffff" id="shape2" transform="translate(0,31.06)" d="M1.2,0L49.4,0C50.1,0,50.7,.6,50.7,1.2C50.7,1.9,50.1,2.5,49.4,2.5L1.2,2.5C.6,2.5,0,1.9,0,1.2C0,.6,.6,0,1.2,0z" stroke="#ffffff"/><path fill="#ffffff" id="shape3" transform="translate(9.7,-1)" d="M7.8,14.9C2.4,17.3,-1.5,23.2,.6,26.9C2.7,30.7,12.8,30.6,17.4,25.9C22,21.1,21.6,15.4,22.8,13.3C24,11.3,30.5,4.4,32.2,4.6C33.9,4.8,35.3,4.1,35.3,3.2C35.2,2.4,34.3,2,33.2,1.9C32,1.9,32.4,0,30.8,0C29.4,.6,30,2.1,29.6,3.1C29.2,4.2,24,8.9,20.2,10.9C16.3,13,13.1,12.5,7.8,14.9z" stroke="#ffffff"/><path fill="#b4b5b5" id="shape4" transform="translate(21.74,20.27)" d="M0,.3C0,.1,.1,0,.3,0C.4,0,.6,.1,.6,.3C.6,.4,.4,.6,.3,.6C.1,.6,0,.4,0,.3z" stroke="#b4b5b5"/><path fill="#b4b5b5" id="shape5" transform="translate(18.13,20.27)" d="M0,.3C0,.1,.1,0,.3,0C.4,0,.6,.1,.6,.3C.6,.4,.4,.6,.3,.6C.1,.6,0,.4,0,.3z" stroke="#b4b5b5"/><path fill="#b4b5b5" id="shape6" transform="translate(19.53,22.4)" d="M0,.3C0,.1,.1,0,.3,0C.4,0,.6,.1,.6,.3C.6,.4,.4,.6,.3,.6C.1,.6,0,.4,0,.3z" stroke="#b4b5b5"/><path fill="#b4b5b5" id="shape7" transform="translate(16.54,22.4)" d="M0,.3C0,.1,.1,0,.3,0C.4,0,.6,.1,.6,.3C.6,.4,.4,.6,.3,.6C.1,.6,0,.4,0,.3z" stroke="#b4b5b5"/><path fill="#b4b5b5" id="shape8" transform="translate(17.45,17.56)" d="M0,.3C0,.1,.1,0,.3,0C.4,0,.6,.1,.6,.3C.6,.4,.4,.6,.3,.6C.1,.6,0,.4,0,.3z" stroke="#b4b5b5"/><path fill="#b4b5b5" id="shape9" transform="translate(21.74,15.88)" d="M0,.3C0,.1,.1,0,.3,0C.4,0,.6,.1,.6,.3C.6,.4,.4,.6,.3,.6C.1,.6,0,.4,0,.3z" stroke="#b4b5b5"/><path fill="#b4b5b5" id="shape10" transform="translate(13.55,22.4)" d="M0,.3C0,.1,.1,0,.3,0C.4,0,.6,.1,.6,.3C.6,.4,.4,.6,.3,.6C.1,.6,0,.4,0,.3z" stroke="#b4b5b5"/><path fill="#b4b5b5" id="shape11" transform="translate(20.76,18.51)" d="M0,.3C0,.1,.1,0,.3,0C.4,0,.6,.1,.6,.3C.6,.4,.4,.6,.3,.6C.1,.6,0,.4,0,.3z" stroke="#b4b5b5"/><path fill="#b4b5b5" id="shape12" transform="translate(14.43,20.27)" d="M0,.3C0,.1,.1,0,.3,0C.4,0,.6,.1,.6,.3C.6,.4,.4,.6,.3,.6C.1,.6,0,.4,0,.3z" stroke="#b4b5b5"/><path fill="#b4b5b5" id="shape13" transform="translate(24.08,17.56)" d="M0,.3C0,.1,.1,0,.3,0C.4,0,.6,.1,.6,.3C.6,.4,.4,.6,.3,.6C.1,.6,0,.4,0,.3z" stroke="#b4b5b5"/><path fill="#b4b5b5" id="shape14" transform="translate(24.46,14.14)" d="M0,.3C0,.1,.1,0,.3,0C.4,0,.6,.1,.6,.3C.6,.4,.4,.6,.3,.6C.1,.6,0,.4,0,.3z" stroke="#b4b5b5"/></g><path fill="#ffffff" stroke-width="0.133333" id="shape15" transform="translate(0,2.44)" d="M0,37.9C0,17,17,0,37.9,0C58.8,0,75.8,17,75.8,37.9C75.8,41.2,75.4,44.4,74.6,47.4L71.4,47.4C72.2,44.4,72.7,41.2,72.7,37.9C72.7,18.7,57.1,3.1,37.9,3.1C18.7,3.1,3.1,18.7,3.1,37.9C3.1,41.2,3.5,44.4,4.4,47.4L1.2,47.4C.4,44.4,0,41.2,0,37.9z" stroke="#ffffff"/><path fill="#ffffff" id="shape16" transform="translate(34.8,-1)" d="M0,3.1C0,1.4,1.4,0,3.1,0C4.8,0,6.2,1.4,6.2,3.1C6.2,4.8,4.8,6.2,3.1,6.2C1.4,6.2,0,4.8,0,3.1z" stroke="#ffffff"/></g></g><g transform="translate(53.69,98)"><path fill="#e6e6e8" id="shape17" d="M0,0L290.3,0L290.3,20L0,20L0,0z"/><g id="shape18" transform="translate(255.32,4.39)"><text class="st2"><tspan y="3.2" x="10.1">8:2</tspan><tspan y="13.2" x="14.1">8</tspan></text></g><g transform="translate(234.65,6.52)"><path fill="none" id="shape19" transform="translate(-0,0)" d="M18.1,-0L.8,-0C.4,-0,0,.4,0,.9L0,7.3C0,7.8,.4,8.2,.8,8.2L18.1,8.2C18.6,8.2,19,7.8,19,7.3L19,.9C19,.4,18.6,-0,18.1,-0" stroke="#000000"/><path fill="#000000" id="shape20" transform="translate(0.84,0.86)" d="M14.4,6C14.4,6.3,14.3,6.5,14.1,6.5L.4,6.5C.2,6.5,0,6.3,0,6L0,.4C0,.2,.2,0,.4,0L14.1,0C14.3,0,14.4,.2,14.4,.4L14.4,6"/><path fill="#000000" id="shape21" transform="translate(19.39,2.59)" d="M1.3,1.7C1.3,2.4,.7,3,0,3L0,-0C.7,-0,1.3,.6,1.3,1.3" stroke="#000000"/></g><g id="shape22" transform="translate(204.99,6.04)"><text class="st2"><tspan y="6.6" x="12.2">88%</tspan></text></g><path fill="#000000" id="shape23" transform="translate(180.1,5.74)" d="M4.7,7.6L6.6,9.8L8.5,7.6C8.5,7.6,7.5,6.8,6.6,6.8C5.6,6.8,4.7,7.6,4.7,7.6M2.3,5L3.4,6.2C3.4,6.2,4.4,4.9,6.6,4.9C8.8,4.9,9.7,6.2,9.7,6.2L10.8,5C10.8,5,8.8,3.3,6.6,3.3C4.4,3.3,2.3,5,2.3,5M6.6,-0C3,-0,0,2.8,0,2.8L1.1,3.9C1.1,3.9,3.3,1.6,6.6,1.6C9.9,1.6,12.1,3.9,12.1,3.9L13.1,2.8C13.1,2.8,10.2,-0,6.6,-0"/><g transform="translate(198.27,5.54)"><path fill="#000000" id="shape24" transform="translate(12.52,0)" d="M0,0L1.8,0L1.8,10.2L0,10.2L0,0z"/><path fill="#000000" id="shape25" transform="translate(8.35,1.74)" d="M0,0L1.8,0L1.8,8.4L0,8.4L0,0z"/><path fill="#000000" id="shape26" transform="translate(4.17,4.34)" d="M0,0L1.8,0L1.8,5.8L0,5.8L0,0z"/><path fill="#000000" id="shape27" transform="translate(-0,6.51)" d="M0,0L1.8,0L1.8,3.6L0,3.6L0,0z"/></g><path fill="#000000" id="shape28" transform="translate(6.79,3.9)" d="M1.2,0L12.2,0C12.9,0,13.4,.5,13.4,1.2L13.4,8.9C13.4,9.5,12.9,10.1,12.2,10.1L5.5,10.1L2.4,12.2L2.4,10.1L1.2,10.1C.5,10.1,0,9.5,0,8.9L0,1.2C0,.5,.5,0,1.2,0z"/><path fill="#ffffff" id="shape29" transform="translate(9.71,9.57)" d="M.2,-0C.2,-0,1.9,.5,3.8,.5C5.7,.5,7.3,-0,7.3,-0C7.5,-0,7.5,.1,7.5,.2C7.5,.3,7.5,.4,7.3,.4C7.3,.4,5.9,.9,3.8,.9C1.7,.9,.2,.4,.2,.4C.1,.4,0,.3,0,.2C0,.1,.1,-0,.2,-0z" stroke="#ffffff"/><g transform="translate(10.51,6.47)"><path fill="#ffffff" id="shape30" transform="translate(-0,0)" d="M-0,.6C-0,.3,.3,0,.6,0C.9,0,1.2,.3,1.2,.6C1.2,.9,.9,1.2,.6,1.2C.3,1.2,-0,.9,-0,.6z" stroke="#ffffff"/><path fill="#ffffff" id="shape31" transform="translate(4.77,0)" d="M-0,.6C-0,.3,.3,0,.6,0C.9,0,1.2,.3,1.2,.6C1.2,.9,.9,1.2,.6,1.2C.3,1.2,-0,.9,-0,.6z" stroke="#ffffff"/></g><g transform="translate(28,4.2)"><path fill="#000000" id="shape32" transform="translate(-0.06,6.82)" d="M1.6,1.1C1.6,1.1,7.2,-1.4,12.7,1.1C12.7,1.1,14.9,2,14.3,3.7C14.3,3.7,13.9,4.8,13.6,4.8L10.7,4.1C10.7,4.1,10.4,4,10.3,3.6L9.9,2.6C9.9,2.6,9.7,2.1,9.2,2C9.2,2,7.2,1.5,5.2,2C5.2,2,4.5,2.1,4.4,2.6L4.1,3.6C4.1,3.6,4.1,3.9,3.6,4.1L1,4.7C1,4.7,.5,4.9,.4,4.6C.1,3.9,-0.2,2.4,.4,1.8C.4,1.8,1.2,1.3,1.6,1.1z"/><path fill="#000000" id="shape33" transform="translate(2.67,-0)" d="M8.9,.9L4.4,5.6L.9,1.9L0,0L2.7,0L1.8,1L4.4,3.8L8.9,.9z"/></g></g><g transform="translate(40,40)"><g transform="translate(318.23,107.76)"><path fill="#ffffff" stroke-width="0.5" id="shape34" transform="translate(0.05,120.65)" d="M-0.1,0L2.2,0C3.3,0,4.1,.9,4.1,2.1L4.1,42.9C4.1,44,3.3,45,2.2,45L-0.1,45L-0.1,0z" stroke="#808080"/><path fill="#ffffff" stroke-width="0.5" id="shape35" transform="matrix(-1,0,0,1,5.7,0)" d="M1.8,0L5.6,0L5.6,99.5L1.8,99.5C.8,99.5,-0.1,98.6,-0.1,97.5L-0.1,1.9C-0.1,.8,.8,0,1.8,0z" stroke="#808080"/></g><path fill="#ffffff" stroke-width="0.5" id="shape36" d="M30.2,0L287.8,0C304.5,0,318,13.5,318,30.2L318,611.8C318,628.5,304.5,642,287.8,642L30.2,642C13.5,642,0,628.5,0,611.8L0,30.2C0,13.5,13.5,0,30.2,0zM14,576.3L304,576.3L304,58.2L14,58.2L14,576.3z" stroke="#808080"/><g transform="translate(106.94,25.58)"><path fill="#ffffff" stroke-width="0.5" id="shape37" transform="translate(0,2.06)" d="M3.2,0L12.5,0C14.3,0,15.7,1.4,15.7,3.2C15.7,5,14.3,6.4,12.5,6.4L3.2,6.4C1.4,6.4,0,5,0,3.2C0,1.4,1.4,0,3.2,0z" stroke="#808080"/><path fill="#ffffff" stroke-width="0.5" id="shape38" transform="translate(31.07,2.24)" d="M3,0L32.7,0C34.4,0,35.7,1.4,35.7,3C35.7,4.7,34.4,6.1,32.7,6.1L3,6.1C1.4,6.1,0,4.7,0,3C0,1.4,1.4,0,3,0z" stroke="#808080"/><path fill="#ffffff" stroke-width="0.5" id="shape39" transform="translate(93.57,0)" d="M0,5.3C0,2.4,2.4,0,5.3,0C8.2,0,10.6,2.4,10.6,5.3C10.6,8.2,8.2,10.6,5.3,10.6C2.4,10.6,0,8.2,0,5.3z" stroke="#808080"/></g><g transform="translate(55.23,600.24)"><path fill="#ffffff" stroke-width="0.5" id="shape40" transform="translate(-0,0)" d="M2.5,0L10.7,0C12.1,0,13.2,1.1,13.2,2.5L13.2,10.7C13.2,12.1,12.1,13.2,10.7,13.2L2.5,13.2C1.1,13.2,0,12.1,0,10.7L0,2.5C0,1.1,1.1,0,2.5,0z" stroke="#808080"/><path fill="#ffffff" stroke-width="0.5" id="shape41" transform="translate(100.52,0.36)" d="M0,6.3C0,2.8,2.8,0,6.3,0C9.7,0,12.5,2.8,12.5,6.3C12.5,9.7,9.7,12.5,6.3,12.5C2.8,12.5,0,9.7,0,6.3z" stroke="#808080"/><path fill="#ffffff" stroke-width="0.5" id="shape42" transform="translate(201.8,0.21)" d="M-5.7,6.4L5.7,0L5.7,12.8L-5.7,6.4z" stroke="#808080"/></g></g><g transform="translate(142.96,334.51)"><g id="shape43" transform="translate(0,47.98)"><text class="st1"><tspan y="22.5" x="22">SAMPLE TEXT</tspan></text></g><g transform="translate(28.15,0)"><g transform="translate(12.55,15.62)"><path fill="#ffffff" id="shape44" transform="translate(0,31.06)" d="M1.2,0L49.4,0C50.1,0,50.7,.6,50.7,1.2C50.7,1.9,50.1,2.5,49.4,2.5L1.2,2.5C.6,2.5,0,1.9,0,1.2C0,.6,.6,0,1.2,0z" stroke="#ffffff"/><path fill="#ffffff" id="shape45" transform="translate(9.7,-1)" d="M7.8,14.9C2.4,17.3,-1.5,23.2,.6,26.9C2.7,30.7,12.8,30.6,17.4,25.9C22,21.1,21.6,15.4,22.8,13.3C24,11.3,30.5,4.4,32.2,4.6C33.9,4.8,35.3,4.1,35.3,3.2C35.2,2.4,34.3,2,33.2,1.9C32,1.9,32.4,0,30.8,0C29.4,.6,30,2.1,29.6,3.1C29.2,4.2,24,8.9,20.2,10.9C16.3,13,13.1,12.5,7.8,14.9z" stroke="#ffffff"/><path fill="#b4b5b5" id="shape46" transform="translate(21.74,20.27)" d="M0,.3C0,.1,.1,0,.3,0C.4,0,.6,.1,.6,.3C.6,.4,.4,.6,.3,.6C.1,.6,0,.4,0,.3z" stroke="#b4b5b5"/><path fill="#b4b5b5" id="shape47" transform="translate(18.13,20.27)" d="M0,.3C0,.1,.1,0,.3,0C.4,0,.6,.1,.6,.3C.6,.4,.4,.6,.3,.6C.1,.6,0,.4,0,.3z" stroke="#b4b5b5"/><path fill="#b4b5b5" id="shape48" transform="translate(19.53,22.4)" d="M0,.3C0,.1,.1,0,.3,0C.4,0,.6,.1,.6,.3C.6,.4,.4,.6,.3,.6C.1,.6,0,.4,0,.3z" stroke="#b4b5b5"/><path fill="#b4b5b5" id="shape49" transform="translate(16.54,22.4)" d="M0,.3C0,.1,.1,0,.3,0C.4,0,.6,.1,.6,.3C.6,.4,.4,.6,.3,.6C.1,.6,0,.4,0,.3z" stroke="#b4b5b5"/><path fill="#b4b5b5" id="shape50" transform="translate(17.45,17.56)" d="M0,.3C0,.1,.1,0,.3,0C.4,0,.6,.1,.6,.3C.6,.4,.4,.6,.3,.6C.1,.6,0,.4,0,.3z" stroke="#b4b5b5"/><path fill="#b4b5b5" id="shape51" transform="translate(21.74,15.88)" d="M0,.3C0,.1,.1,0,.3,0C.4,0,.6,.1,.6,.3C.6,.4,.4,.6,.3,.6C.1,.6,0,.4,0,.3z" stroke="#b4b5b5"/><path fill="#b4b5b5" id="shape52" transform="translate(13.55,22.4)" d="M0,.3C0,.1,.1,0,.3,0C.4,0,.6,.1,.6,.3C.6,.4,.4,.6,.3,.6C.1,.6,0,.4,0,.3z" stroke="#b4b5b5"/><path fill="#b4b5b5" id="shape53" transform="translate(20.76,18.51)" d="M0,.3C0,.1,.1,0,.3,0C.4,0,.6,.1,.6,.3C.6,.4,.4,.6,.3,.6C.1,.6,0,.4,0,.3z" stroke="#b4b5b5"/><path fill="#b4b5b5" id="shape54" transform="translate(14.43,20.27)" d="M0,.3C0,.1,.1,0,.3,0C.4,0,.6,.1,.6,.3C.6,.4,.4,.6,.3,.6C.1,.6,0,.4,0,.3z" stroke="#b4b5b5"/><path fill="#b4b5b5" id="shape55" transform="translate(24.08,17.56)" d="M0,.3C0,.1,.1,0,.3,0C.4,0,.6,.1,.6,.3C.6,.4,.4,.6,.3,.6C.1,.6,0,.4,0,.3z" stroke="#b4b5b5"/><path fill="#b4b5b5" id="shape56" transform="translate(24.46,14.14)" d="M0,.3C0,.1,.1,0,.3,0C.4,0,.6,.1,.6,.3C.6,.4,.4,.6,.3,.6C.1,.6,0,.4,0,.3z" stroke="#b4b5b5"/></g><path fill="#ffffff" stroke-width="0.133333" id="shape57" transform="translate(0,2.44)" d="M0,37.9C0,17,17,0,37.9,0C58.8,0,75.8,17,75.8,37.9C75.8,41.2,75.4,44.4,74.6,47.4L71.4,47.4C72.2,44.4,72.7,41.2,72.7,37.9C72.7,18.7,57.1,3.1,37.9,3.1C18.7,3.1,3.1,18.7,3.1,37.9C3.1,41.2,3.5,44.4,4.4,47.4L1.2,47.4C.4,44.4,0,41.2,0,37.9z" stroke="#ffffff"/><path fill="#ffffff" id="shape58" transform="translate(34.8,-1)" d="M0,3.1C0,1.4,1.4,0,3.1,0C4.8,0,6.2,1.4,6.2,3.1C6.2,4.8,4.8,6.2,3.1,6.2C1.4,6.2,0,4.8,0,3.1z" stroke="#ffffff"/></g></g><g transform="translate(63.69,108)"><path fill="#e6e6e8" id="shape59" d="M0,0L290.3,0L290.3,20L0,20L0,0z"/><g id="shape60" transform="translate(255.32,4.39)"><text class="st2"><tspan y="3.2" x="10.1">8:2</tspan><tspan y="13.2" x="14.1">8</tspan></text></g><g transform="translate(234.65,6.52)"><path fill="none" id="shape61" transform="translate(-0,0)" d="M18.1,-0L.8,-0C.4,-0,0,.4,0,.9L0,7.3C0,7.8,.4,8.2,.8,8.2L18.1,8.2C18.6,8.2,19,7.8,19,7.3L19,.9C19,.4,18.6,-0,18.1,-0" stroke="#000000"/><path fill="#000000" id="shape62" transform="translate(0.84,0.86)" d="M14.4,6C14.4,6.3,14.3,6.5,14.1,6.5L.4,6.5C.2,6.5,0,6.3,0,6L0,.4C0,.2,.2,0,.4,0L14.1,0C14.3,0,14.4,.2,14.4,.4L14.4,6"/><path fill="#000000" id="shape63" transform="translate(19.39,2.59)" d="M1.3,1.7C1.3,2.4,.7,3,0,3L0,-0C.7,-0,1.3,.6,1.3,1.3" stroke="#000000"/></g><g id="shape64" transform="translate(204.99,6.04)"><text class="st2"><tspan y="6.6" x="12.2">88%</tspan></text></g><path fill="#000000" id="shape65" transform="translate(180.1,5.74)" d="M4.7,7.6L6.6,9.8L8.5,7.6C8.5,7.6,7.5,6.8,6.6,6.8C5.6,6.8,4.7,7.6,4.7,7.6M2.3,5L3.4,6.2C3.4,6.2,4.4,4.9,6.6,4.9C8.8,4.9,9.7,6.2,9.7,6.2L10.8,5C10.8,5,8.8,3.3,6.6,3.3C4.4,3.3,2.3,5,2.3,5M6.6,-0C3,-0,0,2.8,0,2.8L1.1,3.9C1.1,3.9,3.3,1.6,6.6,1.6C9.9,1.6,12.1,3.9,12.1,3.9L13.1,2.8C13.1,2.8,10.2,-0,6.6,-0"/><g transform="translate(198.27,5.54)"><path fill="#000000" id="shape66" transform="translate(12.52,0)" d="M0,0L1.8,0L1.8,10.2L0,10.2L0,0z"/><path fill="#000000" id="shape67" transform="translate(8.35,1.74)" d="M0,0L1.8,0L1.8,8.4L0,8.4L0,0z"/><path fill="#000000" id="shape68" transform="translate(4.17,4.34)" d="M0,0L1.8,0L1.8,5.8L0,5.8L0,0z"/><path fill="#000000" id="shape69" transform="translate(-0,6.51)" d="M0,0L1.8,0L1.8,3.6L0,3.6L0,0z"/></g><path fill="#000000" id="shape70" transform="translate(6.79,3.9)" d="M1.2,0L12.2,0C12.9,0,13.4,.5,13.4,1.2L13.4,8.9C13.4,9.5,12.9,10.1,12.2,10.1L5.5,10.1L2.4,12.2L2.4,10.1L1.2,10.1C.5,10.1,0,9.5,0,8.9L0,1.2C0,.5,.5,0,1.2,0z"/><path fill="#ffffff" id="shape71" transform="translate(9.71,9.57)" d="M.2,-0C.2,-0,1.9,.5,3.8,.5C5.7,.5,7.3,-0,7.3,-0C7.5,-0,7.5,.1,7.5,.2C7.5,.3,7.5,.4,7.3,.4C7.3,.4,5.9,.9,3.8,.9C1.7,.9,.2,.4,.2,.4C.1,.4,0,.3,0,.2C0,.1,.1,-0,.2,-0z" stroke="#ffffff"/><g transform="translate(10.51,6.47)"><path fill="#ffffff" id="shape72" transform="translate(-0,0)" d="M-0,.6C-0,.3,.3,0,.6,0C.9,0,1.2,.3,1.2,.6C1.2,.9,.9,1.2,.6,1.2C.3,1.2,-0,.9,-0,.6z" stroke="#ffffff"/><path fill="#ffffff" id="shape73" transform="translate(4.77,0)" d="M-0,.6C-0,.3,.3,0,.6,0C.9,0,1.2,.3,1.2,.6C1.2,.9,.9,1.2,.6,1.2C.3,1.2,-0,.9,-0,.6z" stroke="#ffffff"/></g><g transform="translate(28,4.2)"><path fill="#000000" id="shape74" transform="translate(-0.06,6.82)" d="M1.6,1.1C1.6,1.1,7.2,-1.4,12.7,1.1C12.7,1.1,14.9,2,14.3,3.7C14.3,3.7,13.9,4.8,13.6,4.8L10.7,4.1C10.7,4.1,10.4,4,10.3,3.6L9.9,2.6C9.9,2.6,9.7,2.1,9.2,2C9.2,2,7.2,1.5,5.2,2C5.2,2,4.5,2.1,4.4,2.6L4.1,3.6C4.1,3.6,4.1,3.9,3.6,4.1L1,4.7C1,4.7,.5,4.9,.4,4.6C.1,3.9,-0.2,2.4,.4,1.8C.4,1.8,1.2,1.3,1.6,1.1z"/><path fill="#000000" id="shape75" transform="translate(2.67,-0)" d="M8.9,.9L4.4,5.6L.9,1.9L0,0L2.7,0L1.8,1L4.4,3.8L8.9,.9z"/></g></g><g transform="translate(50,50)"><g transform="translate(318.23,107.76)"><path fill="#ffffff" stroke-width="0.5" id="shape76" transform="translate(0.05,120.65)" d="M-0.1,0L2.2,0C3.3,0,4.1,.9,4.1,2.1L4.1,42.9C4.1,44,3.3,45,2.2,45L-0.1,45L-0.1,0z" stroke="#808080"/><path fill="#ffffff" stroke-width="0.5" id="shape77" transform="matrix(-1,0,0,1,5.7,0)" d="M1.8,0L5.6,0L5.6,99.5L1.8,99.5C.8,99.5,-0.1,98.6,-0.1,97.5L-0.1,1.9C-0.1,.8,.8,0,1.8,0z" stroke="#808080"/></g><path fill="#ffffff" stroke-width="0.5" id="shape78" d="M30.2,0L287.8,0C304.5,0,318,13.5,318,30.2L318,611.8C318,628.5,304.5,642,287.8,642L30.2,642C13.5,642,0,628.5,0,611.8L0,30.2C0,13.5,13.5,0,30.2,0zM14,576.3L304,576.3L304,58.2L14,58.2L14,576.3z" stroke="#808080"/><g transform="translate(106.94,25.58)"><path fill="#ffffff" stroke-width="0.5" id="shape79" transform="translate(0,2.06)" d="M3.2,0L12.5,0C14.3,0,15.7,1.4,15.7,3.2C15.7,5,14.3,6.4,12.5,6.4L3.2,6.4C1.4,6.4,0,5,0,3.2C0,1.4,1.4,0,3.2,0z" stroke="#808080"/><path fill="#ffffff" stroke-width="0.5" id="shape80" transform="translate(31.07,2.24)" d="M3,0L32.7,0C34.4,0,35.7,1.4,35.7,3C35.7,4.7,34.4,6.1,32.7,6.1L3,6.1C1.4,6.1,0,4.7,0,3C0,1.4,1.4,0,3,0z" stroke="#808080"/><path fill="#ffffff" stroke-width="0.5" id="shape81" transform="translate(93.57,0)" d="M0,5.3C0,2.4,2.4,0,5.3,0C8.2,0,10.6,2.4,10.6,5.3C10.6,8.2,8.2,10.6,5.3,10.6C2.4,10.6,0,8.2,0,5.3z" stroke="#808080"/></g><g transform="translate(55.23,600.24)"><path fill="#ffffff" stroke-width="0.5" id="shape82" transform="translate(-0,0)" d="M2.5,0L10.7,0C12.1,0,13.2,1.1,13.2,2.5L13.2,10.7C13.2,12.1,12.1,13.2,10.7,13.2L2.5,13.2C1.1,13.2,0,12.1,0,10.7L0,2.5C0,1.1,1.1,0,2.5,0z" stroke="#808080"/><path fill="#ffffff" stroke-width="0.5" id="shape83" transform="translate(100.52,0.36)" d="M0,6.3C0,2.8,2.8,0,6.3,0C9.7,0,12.5,2.8,12.5,6.3C12.5,9.7,9.7,12.5,6.3,12.5C2.8,12.5,0,9.7,0,6.3z" stroke="#808080"/><path fill="#ffffff" stroke-width="0.5" id="shape84" transform="translate(201.8,0.21)" d="M-5.7,6.4L5.7,0L5.7,12.8L-5.7,6.4z" stroke="#808080"/></g></g><g transform="translate(63.69,128)"><path fill="#1bbc9d" id="shape85" d="M0,0L280.3,0L280.3,40L0,40L0,0z" stroke="#1bbc9d"/><path fill="#717070" stroke-width="0.333333" id="shape86" transform="translate(3.47,15.01)" d="M5.4,0L1.5,4.9L5.3,10L3.8,10L0,5L3.8,0L5.4,0z" stroke="#717070"/><g transform="translate(256.73,11.08)"><path fill="#717070" stroke-width="0.333333" id="shape87" d="M0,0L3.7,0L3.7,3.9L0,3.9L0,0z" stroke="#717070"/><path fill="#717070" stroke-width="0.333333" id="shape88" transform="translate(0,14.46)" d="M0,0L3.7,0L3.7,3.9L0,3.9L0,0z" stroke="#717070"/><path fill="#717070" stroke-width="0.333333" id="shape89" transform="translate(0,6.99)" d="M0,0L3.7,0L3.7,3.9L0,3.9L0,0z" stroke="#717070"/></g></g><path fill="#ffffff" id="shape90" transform="translate(289,139.5)" d="M8.5,20.8M8.5,19.3zM9.1,7.9L9.1,0L7.9,0L7.9,7.9L0,7.9L0,9.1L7.9,9.1L7.9,17L9.1,17L9.1,9.1L17,9.1L17,7.9L9.1,7.9z" stroke="#7eccb6"/><g id="shape91" transform="translate(109.04,122)"><text class="st3"><tspan y="31.5" x="33">My Stations</tspan></text></g><g transform="translate(66,128)"><path fill="#eeeeee" id="shape92" d="M2,0L276,0C277.1,0,278,.8,278,1.9L278,248.1C278,249.2,277.1,250,276,250L2,250C.9,250,0,249.2,0,248.1L0,1.9C0,.8,.9,0,2,0z" stroke="#eeeeee"/><path fill="#1bbc9d" id="shape93" transform="translate(0.36,0.18)" d="M2.3,0L275.3,0C276.4,0,277.3,.8,277.3,1.9L277.3,44.9L0,44.9L0,1.9C0,.8,1.2,0,2.3,0z" stroke="#1bbc9d"/><g transform="translate(9.82,9.31)"><path fill="#ffffff" id="shape94" transform="translate(-0.03,-0.04)" d="M14,0C21.8,0,28,5.9,28,13.2C28,20.5,21.8,26.4,14,26.4C6.3,26.4,0,20.5,0,13.2C0,5.9,6.3,0,14,0M14,25.3C21.1,25.3,26.9,19.9,26.9,13.2C26.9,6.5,21.1,1.1,14,1.1C6.9,1.1,1.1,6.5,1.1,13.2C1.1,19.9,6.9,25.3,14,25.3" stroke="#ffffff"/><path fill="#ffffff" id="shape95" transform="translate(6.04,11.12)" d="M15.9,0L7.9,8.4L0,0L15.9,0z" stroke="#ffffff"/></g><g transform="translate(239.32,53.71)"><path fill="#ffffff" id="shape96" d="M0,10.3C0,4.6,4.9,0,11,0C17.1,0,22,4.6,22,10.3C22,16,17.1,20.7,11,20.7C4.9,20.7,0,16,0,10.3z" stroke="#dcdcdd"/><g id="shape97" transform="translate(3.73,3.51)"><path fill="#007835" d="M0,6.8C0,3,3.3,-0,7.3,-0C11.3,-0,14.5,3,14.5,6.8C14.5,10.6,11.3,13.7,7.3,13.7C3.3,13.7,0,10.6,0,6.8z" filter="url(#filter1)" fill-opacity="0.64"/><path fill="#97e42d" d="M0,6.8C0,3,3.3,-0,7.3,-0C11.3,-0,14.5,3,14.5,6.8C14.5,10.6,11.3,13.7,7.3,13.7C3.3,13.7,0,10.6,0,6.8z" stroke="#dcdcdd"/></g></g><g id="shape98" transform="translate(16.03,53.19)"><text class="st4"><tspan y="14.4" x="8.5">Display Temp in Ferenhiet</tspan></text></g><g transform="translate(239.32,95.22)"><path fill="#ffffff" id="shape99" d="M0,10.3C0,4.6,4.9,0,11,0C17.1,0,22,4.6,22,10.3C22,16,17.1,20.7,11,20.7C4.9,20.7,0,16,0,10.3z" stroke="#dcdcdd"/><g id="shape100" transform="translate(3.73,3.51)"><path fill="#007835" d="M0,6.8C0,3,3.3,-0,7.3,-0C11.3,-0,14.5,3,14.5,6.8C14.5,10.6,11.3,13.7,7.3,13.7C3.3,13.7,0,10.6,0,6.8z" filter="url(#filter1)" fill-opacity="0.64"/><path fill="#97e42d" d="M0,6.8C0,3,3.3,-0,7.3,-0C11.3,-0,14.5,3,14.5,6.8C14.5,10.6,11.3,13.7,7.3,13.7C3.3,13.7,0,10.6,0,6.8z" stroke="#97e42d"/></g></g><g id="shape101" transform="translate(16.03,94.69)"><text class="st4"><tspan y="14.4" x="8.5">Display Wind Speed in MPH</tspan></text></g><g id="shape102" transform="translate(57.36,12.26)"><text class="st3"><tspan y="16.4" x="8.1">Settings</tspan></text></g><g transform="translate(-0,82.86)"><path fill="none" id="shape103" transform="translate(0,-0)" d="M0,0L276.9,0" stroke="#b4b5b5"/><path fill="none" id="shape104" transform="translate(0,41.8)" d="M0,0L276.9,0" stroke="#b4b5b5"/><path fill="none" id="shape105" transform="translate(0,84.09)" d="M0,0L276.9,0" stroke="#b4b5b5"/><path fill="none" id="shape106" transform="translate(0,126.14)" d="M0,0L276.9,0" stroke="#b4b5b5"/></g></g></g></svg>